<svg width="312" height="200" viewBox="0 0 312 200" fill="none" xmlns="http://www.w3.org/2000/svg">
<rect width="312" height="200" fill="#F6F6FA"/>
<g filter="url(#filter0_d_2662_29703)">
<rect x="34.5" y="21.5" width="243" height="81" rx="11.5" fill="white" stroke="#ECEFF4"/>
<g clip-path="url(#clip0_2662_29703)">
<rect x="48" y="29" width="23.1795" height="23.1795" rx="11.5897" fill="#65CCB3"/>
<path fill-rule="evenodd" clip-rule="evenodd" d="M56.9479 32.559C57.7332 32.3451 58.724 32.4866 59.9644 33.076C60.112 33.1461 60.1749 33.3227 60.1047 33.4703C60.0346 33.6179 59.858 33.6807 59.7104 33.6106C58.536 33.0526 57.6983 32.9681 57.1034 33.1301C56.5184 33.2895 56.1098 33.7039 55.8247 34.2826C55.5369 34.8666 55.3865 35.5974 55.3192 36.3335C55.3086 36.4492 55.3001 36.5646 55.2934 36.679C55.9465 36.5148 56.6302 36.4276 57.3343 36.4276C58.2636 36.4276 59.1575 36.5795 59.9923 36.8599C60.1036 35.8839 60.399 34.795 60.9388 33.979C61.3407 33.3715 61.8969 32.8886 62.637 32.7496C63.3757 32.611 64.2322 32.8274 65.2094 33.4788C65.3454 33.5695 65.3821 33.7532 65.2914 33.8892C65.2008 34.0252 65.017 34.0619 64.881 33.9713C63.9806 33.371 63.2811 33.2309 62.7462 33.3314C62.2128 33.4315 61.7781 33.7831 61.4324 34.3056C60.928 35.0682 60.6538 36.1369 60.5647 37.0759C63.5693 38.3385 65.6793 41.3091 65.6793 44.7726C65.6793 49.3814 61.9431 53.1176 57.3343 53.1176C52.7255 53.1176 48.9893 49.3814 48.9893 44.7726C48.9893 41.0872 51.3783 37.9598 54.6921 36.8545C54.6998 36.666 54.712 36.4734 54.7297 36.2795C54.8002 35.5095 54.9604 34.6974 55.2938 34.0209C55.6297 33.3393 56.1528 32.7756 56.9479 32.559Z" fill="#B9E9DE"/>
<path d="M61.7729 43.6104C61.7729 44.5105 61.3559 45.2403 60.8415 45.2403C60.3271 45.2403 59.9102 44.5105 59.9102 43.6104C59.9102 42.7102 60.3271 41.9805 60.8415 41.9805C61.3559 41.9805 61.7729 42.7102 61.7729 43.6104Z" fill="black"/>
<path d="M59.5607 41.4568C59.5607 41.9711 59.3001 42.3881 58.9786 42.3881C58.6571 42.3881 58.3965 41.9711 58.3965 41.4568C58.3965 40.9424 58.6571 40.5254 58.9786 40.5254C59.3001 40.5254 59.5607 40.9424 59.5607 41.4568Z" fill="black"/>
<path d="M63.2863 41.4568C63.2863 41.9711 63.0257 42.3881 62.7042 42.3881C62.3827 42.3881 62.1221 41.9711 62.1221 41.4568C62.1221 40.9424 62.3827 40.5254 62.7042 40.5254C63.0257 40.5254 63.2863 40.9424 63.2863 41.4568Z" fill="black"/>
</g>
<path opacity="0.8" d="M84.2663 36.377H77.1953V37.2598H80.1748V39.7894H81.2444V37.2598H84.2663V36.377ZM77.9084 34.0681C77.9041 35.1165 79.0501 35.7913 80.7096 35.7913C82.3691 35.7913 83.5278 35.1165 83.5278 34.0681C83.5278 32.9943 82.3691 32.3152 80.7096 32.311C79.0501 32.3152 77.9041 32.9943 77.9084 34.0681ZM79.0204 34.0681C79.0161 33.4952 79.674 33.1811 80.7096 33.1768C81.7537 33.1811 82.4073 33.4952 82.4073 34.0681C82.4073 34.6199 81.7537 34.9297 80.7096 34.934C79.674 34.9297 79.0161 34.6199 79.0204 34.0681ZM91.2269 32.0563H90.1489V33.024H88.6889C88.7228 32.8118 88.7398 32.5869 88.7398 32.3534H85.2425V33.2278H87.5386C87.3943 34.1573 86.5794 34.8915 84.8096 35.2396L85.1746 36.1224C86.885 35.7489 87.9885 35.0061 88.4681 33.8474H90.1489V34.5265H88.3833V35.3499H90.1489V35.9441H91.2269V32.0563ZM86.0913 37.0731H90.1404V37.54H86.0998V39.7046H91.3967V38.8472H87.1864V38.3379H91.2269V36.2242H86.0913V37.0731ZM99.2741 35.7743H92.2286V36.6232H95.2081V37.175C93.8329 37.2598 93.035 37.714 93.035 38.4652C93.035 39.3183 94.0409 39.7852 95.7429 39.7809C97.4363 39.7852 98.4253 39.3183 98.4337 38.4652C98.4253 37.714 97.6443 37.2641 96.2861 37.175V36.6232H99.2741V35.7743ZM92.5257 34.7048L92.8567 35.5282C94.2701 35.4263 95.2548 35.0146 95.7429 34.3907C96.2267 35.0146 97.2114 35.4263 98.6375 35.5282L98.96 34.7048C97.3387 34.5987 96.5493 34.1318 96.3795 33.6013H98.595V32.7439H96.2776V32.0818H95.2081V32.7439H92.9077V33.6013H95.102C94.928 34.1318 94.1428 34.5987 92.5257 34.7048ZM94.1385 38.4652C94.1343 38.1172 94.6606 37.9559 95.7429 37.9559C96.7997 37.9559 97.343 38.1172 97.3472 38.4652C97.343 38.8217 96.7997 38.983 95.7429 38.983C94.6606 38.983 94.1343 38.8217 94.1385 38.4652ZM106.438 32.0563H105.403V39.7809H106.438V32.0563ZM99.7325 34.0851H103.408V33.2278H102.118V32.2431H101.04V33.2278H99.7325V34.0851ZM99.9023 36.3006C99.898 37.3957 100.603 38.1596 101.549 38.1596C102.215 38.1596 102.754 37.7946 103.026 37.2089H103.9V39.4414H104.911V32.1837H103.9V34.552H103.052V35.4348H103.9V36.3601H103.213V36.3006C103.213 35.2056 102.517 34.4416 101.549 34.4416C100.603 34.4416 99.898 35.2056 99.9023 36.3006ZM100.845 36.3006C100.84 35.6937 101.125 35.3584 101.549 35.3584C101.982 35.3584 102.275 35.6937 102.279 36.3006C102.275 36.8948 101.982 37.2386 101.549 37.2429C101.125 37.2386 100.84 36.8948 100.845 36.3006ZM113.713 32.0648H112.635V37.7522H113.713V32.0648ZM107.652 33.4315H110.156V34.2294H107.661V36.7675H108.34C109.974 36.7675 110.976 36.7251 112.1 36.5128L111.982 35.647C110.98 35.838 110.106 35.8804 108.722 35.8847V35.0273H111.235V32.5657H107.652V33.4315ZM108.518 39.6451H113.917V38.7793H109.596V37.2768H108.518V39.6451Z" fill="#2D3036"/>
<path opacity="0.4" d="M123.168 33.3786H122.404L121.13 34.2133V34.956L122.354 34.1567H122.382V38.5H123.168V33.3786ZM130.043 36.0808H124.243V36.6184H126.86V37.7855H127.525V36.6184H130.043V36.0808ZM124.964 38.9669H129.4V38.4222H125.629V37.2338H124.964V38.9669ZM125.007 35.5219H129.279V32.9612H128.607V33.7322H125.672V32.9612H125.007V35.5219ZM125.672 34.9843V34.2345H128.607V34.9843H125.672ZM135.794 32.7702H135.122V34.4821H133.913V35.0268H135.122V37.4106H135.794V32.7702ZM130.517 36.0878L130.864 36.6325C131.617 36.3637 132.173 35.8049 132.448 35.1046C132.724 35.7341 133.251 36.2435 133.962 36.491L134.309 35.9534C133.35 35.6351 132.777 34.8393 132.781 34.0506V33.803H134.139V33.2512H130.722V33.803H132.095V34.0506C132.098 34.9242 131.49 35.7589 130.517 36.0878ZM131.677 38.9669H135.964V38.4222H132.349V36.9933H131.677V38.9669Z" fill="#555A63"/>
<path d="M81.9263 50.8799H77.7966V54.9601H81.9263V50.8799ZM78.5591 54.3362V51.5237H81.1637V54.3362H78.5591ZM78.9157 58.6144H84.8775V57.9707H79.6881V55.8316H78.9157V58.6144ZM83.8277 56.4456H84.6002V50.1174H83.8277V56.4456ZM89.2449 52.8111V51.6623H91.3444V51.0186H86.3828V51.6623H88.4625V52.8111C88.4575 54.3362 87.3583 56 86.0956 56.6041L86.561 57.2181C87.5662 56.713 88.4575 55.5939 88.8685 54.3015C89.2795 55.5197 90.1659 56.5347 91.1958 57.0002L91.6316 56.3862C90.3342 55.8267 89.2498 54.3065 89.2449 52.8111ZM92.5724 58.9115H93.3547V50.1075H92.5724V58.9115ZM101.743 50.1174H100.97V55.4355H101.743V52.9794H103.08V52.3258H101.743V50.1174ZM95.2364 51.3058H98.4649V52.4249H95.2562V54.9205H95.9395C97.5785 54.9205 98.757 54.866 100.168 54.6333L100.089 53.9797C98.7174 54.2124 97.5835 54.2718 96.0187 54.2669V53.0389H99.2274V50.6621H95.2364V51.3058ZM95.9989 57.3072C95.994 58.3124 97.1032 58.8917 98.9204 58.8917C100.718 58.8917 101.822 58.3124 101.822 57.3072C101.822 56.2971 100.718 55.6979 98.9204 55.7029C97.1032 55.6979 95.994 56.2971 95.9989 57.3072ZM96.7615 57.3072C96.7516 56.6882 97.5686 56.3169 98.9204 56.3169C100.252 56.3169 101.064 56.6882 101.069 57.3072C101.064 57.9212 100.252 58.2926 98.9204 58.2876C97.5686 58.2926 96.7516 57.9212 96.7615 57.3072ZM113.468 50.1075H112.686V52.405H110.913V53.0488H112.686V55.3562H113.468V50.1075ZM106.209 54.6531L106.615 55.277C107.665 54.8759 108.482 54.054 108.858 53.024C109.24 53.9302 110.007 54.6729 110.993 55.0294L111.399 54.4055C110.111 53.9648 109.23 52.8705 109.23 51.7217V51.4048H111.201V50.7512H106.457V51.4048H108.447V51.7316C108.447 52.9893 107.517 54.1827 106.209 54.6531ZM107.596 57.2676C107.591 58.3074 108.715 58.9016 110.547 58.9115C112.374 58.9016 113.498 58.3074 113.498 57.2676C113.498 56.2327 112.374 55.6286 110.547 55.6335C108.715 55.6286 107.591 56.2327 107.596 57.2676ZM108.368 57.2676C108.363 56.6239 109.195 56.2376 110.547 56.2376C111.894 56.2376 112.726 56.6239 112.726 57.2676C112.726 57.9064 111.894 58.2926 110.547 58.2876C109.195 58.2926 108.363 57.9064 108.368 57.2676ZM122.233 50.1174H121.451V51.4939H119.163C118.752 50.9839 118.108 50.6769 117.36 50.672C116.043 50.6769 115.068 51.588 115.073 52.8804C115.068 54.1678 116.043 55.079 117.36 55.079C118.113 55.079 118.767 54.767 119.173 54.2471H121.451V56.6239H122.233V50.1174ZM115.816 52.8804C115.816 52.004 116.459 51.3701 117.36 51.3652C118.227 51.3701 118.886 52.004 118.886 52.8804C118.886 53.7618 118.227 54.3907 117.36 54.3857C116.459 54.3907 115.816 53.7618 115.816 52.8804ZM116.578 58.7234H122.48V58.0698H117.36V55.9405H116.578V58.7234ZM119.514 52.1377H121.451V53.6034H119.519C119.594 53.3805 119.638 53.1379 119.638 52.8804C119.638 52.613 119.594 52.3654 119.514 52.1377ZM130.958 50.1075H130.175V58.9314H130.958V50.1075ZM124.025 53.8608C124.03 55.7375 124.961 56.9259 126.273 56.921C127.581 56.9259 128.526 55.7375 128.522 53.8608C128.526 51.9891 127.581 50.7958 126.273 50.7908C124.961 50.7958 124.03 51.9891 124.025 53.8608ZM124.778 53.8608C124.778 52.4298 125.392 51.489 126.273 51.484C127.16 51.489 127.769 52.4298 127.769 53.8608C127.769 55.2919 127.16 56.2327 126.273 56.2277C125.392 56.2327 124.778 55.2919 124.778 53.8608ZM142.01 50.5234H135.969V51.1572H141.237V51.2662C141.237 51.9544 141.237 52.6031 141 53.5043L141.772 53.6034C142.005 52.6873 142.005 51.9743 142.01 51.2662V50.5234ZM135.018 54.7422H143.03V54.0985H139.098V52.4546H138.336V54.0985H135.018V54.7422ZM136.018 58.7927H142.119V58.149H136.801V56.3466H142V55.7128H136.018V58.7927ZM149.269 52.4744V50.87H148.506V52.4744C148.497 54.0837 147.477 55.7722 146.189 56.406L146.684 57.0299C147.675 56.5001 148.506 55.386 148.898 54.0886C149.289 55.3117 150.101 56.3565 151.071 56.8616L151.547 56.2376C150.294 55.6236 149.269 54.0242 149.269 52.4744ZM152.359 58.9115H153.131V54.356H154.607V53.6826H153.131V50.1075H152.359V58.9115ZM162.292 50.1174H161.519V54.7125H162.292V50.1174ZM155.092 53.2468L155.201 53.8905C155.899 53.8856 156.692 53.8757 157.519 53.846V55.0988H156.459V55.7227H161.529V56.6239H156.479V58.8125H162.648V58.1886H157.251V57.2082H162.292V55.0988H158.301V53.8113C159.172 53.7668 160.064 53.6925 160.905 53.5736L160.856 53.0191C160.504 53.0587 160.143 53.0884 159.781 53.1131C159.96 52.0485 159.96 51.2513 159.955 50.8106V50.5036H155.904V51.1374H159.197C159.182 51.5979 159.153 52.2614 159.009 53.1627C157.637 53.2369 156.251 53.2468 155.092 53.2468ZM173.691 50.1174H172.908V52.5932H170.977V53.2468H172.908V56.0792H173.691V50.1174ZM166.54 54.8809L166.887 55.5048C169.417 54.6927 170.933 53.0686 170.938 50.8106H166.976V51.4444H170.111C169.947 53.0092 168.645 54.2322 166.54 54.8809ZM167.461 58.2678L167.778 58.8818C169.091 58.6243 170.299 57.9361 170.834 56.8962C171.353 57.9262 172.552 58.6144 173.849 58.862L174.176 58.2381C172.626 57.9608 171.22 56.9952 171.215 55.7128V55.3067H170.452V55.7128C170.442 57.0101 169.021 57.9955 167.461 58.2678ZM184.584 50.1075H183.812V54.8215H184.584V52.8111H185.911V52.1674H184.584V50.1075ZM177.731 54.356L178.058 54.9898C180.653 54.3956 182.213 52.9349 182.217 50.7314H178.108V51.3652H181.356C181.227 52.7517 179.969 53.8608 177.731 54.356ZM179.009 58.7927H184.832V58.1886H179.791V57.2775H184.525V56.6833H179.791V55.8118H184.624V55.2176H179.009V58.7927ZM189.615 52.8111V51.6623H191.715V51.0186H186.753V51.6623H188.833V52.8111C188.828 54.3362 187.729 56 186.466 56.6041L186.931 57.2181C187.937 56.713 188.828 55.5939 189.239 54.3015C189.65 55.5197 190.536 56.5347 191.566 57.0002L192.002 56.3862C190.705 55.8267 189.62 54.3065 189.615 52.8111ZM192.943 58.9115H193.725V50.1075H192.943V58.9115ZM200.232 50.6125C198.919 50.6175 197.939 51.4543 197.944 52.6427C197.939 53.846 198.919 54.6779 200.232 54.6828C201.549 54.6779 202.519 53.846 202.519 52.6427C202.519 51.4543 201.549 50.6175 200.232 50.6125ZM198.707 52.6427C198.702 51.8505 199.365 51.2662 200.232 51.2662C201.103 51.2662 201.762 51.8505 201.757 52.6427C201.762 53.4499 201.103 54.0391 200.232 54.0391C199.365 54.0391 198.702 53.4499 198.707 52.6427ZM198.716 58.6739H199.132C199.707 58.6788 200.544 58.6392 201.4 58.357L201.281 57.733C200.657 57.941 199.979 58.0153 199.469 58.0351V55.4652H198.716V58.6739ZM201.093 56.1089H205.54V55.5048H203.708V54.7224H202.945V55.5048H201.093V56.1089ZM201.678 57.6538C201.673 58.4164 202.341 58.8917 203.312 58.8917C204.277 58.8917 204.956 58.4164 204.965 57.6538C204.956 56.8913 204.277 56.406 203.312 56.406C202.341 56.406 201.673 56.8913 201.678 57.6538ZM202.371 57.6538C202.371 57.2478 202.762 56.9754 203.312 56.9705C203.861 56.9754 204.252 57.2478 204.252 57.6538C204.252 58.0698 203.861 58.3322 203.312 58.3372C202.762 58.3322 202.371 58.0698 202.371 57.6538ZM203.886 54.5145H204.658V52.7418H205.985V52.098H204.658V50.1075H203.886V54.5145ZM214.78 53.6232H213.354V50.1075H212.581V58.9115H213.354V54.2768H214.78V53.6232ZM206.907 56.6734H207.61C208.942 56.6734 210.308 56.5843 211.828 56.2773L211.729 55.6137C210.279 55.9207 208.966 56.0198 207.679 56.0198V50.979H206.907V56.6734ZM223.366 57.1289H221.365V54.7323C222.093 54.3412 222.534 53.7172 222.534 52.9299C222.534 51.5682 221.197 50.672 219.315 50.6621C217.434 50.672 216.097 51.5682 216.097 52.9299C216.097 53.7321 216.552 54.3659 217.305 54.7571V57.1289H215.305V57.7826H223.366V57.1289ZM216.849 52.9299C216.845 51.9445 217.87 51.2959 219.315 51.3058C220.746 51.2959 221.781 51.9445 221.781 52.9299C221.781 53.9153 220.746 54.5739 219.315 54.5739C217.87 54.5739 216.845 53.9153 216.849 52.9299ZM218.068 57.1289V55.0393C218.444 55.1384 218.865 55.1879 219.315 55.1879C219.776 55.1879 220.202 55.1334 220.583 55.0344V57.1289H218.068ZM225 58.1688C225.351 58.1638 225.639 57.8766 225.634 57.5251C225.639 57.1785 225.351 56.8913 225 56.8913C224.653 56.8913 224.356 57.1785 224.366 57.5251C224.356 57.8766 224.653 58.1638 225 58.1688ZM227.575 58.1688C227.926 58.1638 228.214 57.8766 228.209 57.5251C228.214 57.1785 227.926 56.8913 227.575 56.8913C227.228 56.8913 226.931 57.1785 226.941 57.5251C226.931 57.8766 227.228 58.1638 227.575 58.1688ZM230.635 50.9394H229.664L229.734 56.0891H230.566L230.635 50.9394ZM229.516 57.5251C229.506 57.8766 229.803 58.1638 230.15 58.1688C230.501 58.1638 230.788 57.8766 230.783 57.5251C230.788 57.1785 230.501 56.8913 230.15 56.8913C229.803 56.8913 229.506 57.1785 229.516 57.5251ZM233.22 56.0396V56.0891H234.071V56.0396C234.091 55.1829 234.314 54.8017 234.933 54.4253C235.547 54.049 235.913 53.5093 235.913 52.7319C235.913 51.6375 235.106 50.8403 233.863 50.8403C232.729 50.8403 231.823 51.5385 231.774 52.7418H232.675C232.729 51.9247 233.299 51.588 233.863 51.593C234.517 51.588 235.042 52.0188 235.042 52.6922C235.042 53.2468 234.73 53.643 234.319 53.8905C233.636 54.3065 233.23 54.7125 233.22 56.0396ZM233.041 57.5251C233.032 57.8766 233.329 58.1638 233.675 58.1688C234.027 58.1638 234.314 57.8766 234.309 57.5251C234.314 57.1785 234.027 56.8913 233.675 56.8913C233.329 56.8913 233.032 57.1785 233.041 57.5251ZM80.0149 64.5234C78.7275 64.5234 77.8312 65.2166 77.8362 66.2664C77.8312 67.1924 78.5591 67.8509 79.6485 67.9698V68.8611C78.8067 68.8908 78.0046 68.8957 77.3212 68.8908L77.4203 69.5345C78.9404 69.5395 81.0498 69.5097 82.9166 69.178L82.8572 68.5937C82.0897 68.7076 81.2529 68.7819 80.4309 68.8264V67.9648C81.4905 67.8311 82.1986 67.1775 82.2036 66.2664C82.1986 65.2166 81.3024 64.5234 80.0149 64.5234ZM78.569 66.2664C78.5591 65.5831 79.1583 65.1275 80.0149 65.1275C80.8765 65.1275 81.4658 65.5831 81.4707 66.2664C81.4658 66.9349 80.8765 67.3904 80.0149 67.3954C79.1583 67.3904 78.5591 66.9349 78.569 66.2664ZM78.6087 72.7135H84.521V72.0599H79.391V70.2674H78.6087V72.7135ZM83.4217 70.8517H84.2041V67.7618H85.5212V67.0983H84.2041V64.1174H83.4217V70.8517ZM93.3944 64.1174H92.612V66.5536H90.7997V67.1973H92.612V70.5744H93.3944V64.1174ZM86.1352 68.8116L86.5412 69.4454C87.586 69.0542 88.3981 68.2471 88.7794 67.227C89.1607 68.1381 89.9282 68.8759 90.9185 69.2374L91.3246 68.6135C90.0371 68.1728 89.1557 67.0686 89.1557 65.9297V65.4741H91.1265V64.8304H86.3828V65.4741H88.3734V65.9297C88.3734 67.1924 87.4325 68.356 86.1352 68.8116ZM87.7395 72.7234H93.6419V72.0698H88.5219V69.9901H87.7395V72.7234ZM104.347 65.0483H98.2767V65.692H103.585V65.9297C103.585 67.0092 103.585 68.3263 103.228 70.1287L104.021 70.2079C104.347 68.2916 104.347 67.0389 104.347 65.9297V65.0483ZM97.4052 71.6142H105.427V70.9705H97.4052V71.6142ZM113.429 64.1174H112.666V70.5942H113.429V64.1174ZM106.615 65.3751H109.864V66.6724H106.635V69.3463H107.348C109.037 69.3364 110.22 69.2869 111.656 69.0393L111.577 68.3956C110.181 68.6432 109.027 68.6927 107.388 68.6927V67.2864H110.636V64.7413H106.615V65.3751ZM107.655 72.7234H113.686V72.0698H108.438V70.0891H107.655V72.7234ZM121.748 64.1075H120.975V72.9314H121.748V68.2669H123.223V67.6133H121.748V64.1075ZM115.281 65.5732H118.509V67.435H115.301V70.8021H116.004C117.702 70.7922 118.876 70.7279 120.262 70.4753L120.183 69.8316C118.851 70.0792 117.707 70.1436 116.073 70.1386V68.0787H119.282V64.9294H115.281V65.5732ZM130.958 64.1075H130.175V72.9314H130.958V64.1075ZM124.025 67.8608C124.03 69.7375 124.961 70.9259 126.273 70.921C127.581 70.9259 128.526 69.7375 128.522 67.8608C128.526 65.9891 127.581 64.7958 126.273 64.7908C124.961 64.7958 124.03 65.9891 124.025 67.8608ZM124.778 67.8608C124.778 66.4298 125.392 65.489 126.273 65.484C127.16 65.489 127.769 66.4298 127.769 67.8608C127.769 69.2919 127.16 70.2327 126.273 70.2277C125.392 70.2327 124.778 69.2919 124.778 67.8608ZM139.593 68.871H134.295V67.4548H139.306V66.8309H134.295V65.5237H139.494V64.87H133.503V69.5048H139.593V68.871ZM132.463 71.7628H140.524V71.119H132.463V71.7628Z" fill="#1C1C1C"/>
<path d="M93.0078 86.4531H92.1641L90.7578 87.375V88.1953L92.1094 87.3125H92.1406V92.1094H93.0078V86.4531ZM94.3203 91.0078H97.0703V92.1094H97.8828V91.0078H98.6562V90.2812H97.8828V86.4531H96.8203L94.3203 90.3125V91.0078ZM95.2266 90.2812V90.2344L97.0078 87.4766H97.0703V90.2812H95.2266ZM100.328 91.5703H99.4531L99.0391 93.7266H99.7031L100.328 91.5703ZM103.289 92.1875C104.504 92.1953 105.312 91.3555 105.312 90.2578C105.312 89.1758 104.5 88.4023 103.492 88.3984C102.879 88.4023 102.348 88.6836 102.039 89.1641H101.977C101.977 87.8867 102.484 87.1289 103.359 87.125C103.93 87.1289 104.293 87.4609 104.406 87.9219H105.258C105.125 87.0234 104.402 86.375 103.359 86.375C102.004 86.375 101.152 87.5 101.148 89.4688C101.148 91.5586 102.242 92.1797 103.289 92.1875ZM102.078 90.2812C102.086 89.6523 102.613 89.0977 103.305 89.1016C103.984 89.0977 104.477 89.625 104.477 90.2734C104.477 90.9336 103.965 91.4648 103.281 91.4688C102.586 91.4648 102.082 90.9102 102.078 90.2812ZM108.148 92.1875C109.328 92.1875 110.164 91.3867 110.164 90.2734C110.164 89.1836 109.379 88.3945 108.312 88.3906C107.883 88.3945 107.484 88.5469 107.25 88.7734H107.195L107.383 87.1875H109.875V86.4531H106.672L106.305 89.6016H107.117C107.309 89.2539 107.656 89.1016 108.109 89.1016C108.82 89.1094 109.328 89.6094 109.328 90.2969C109.328 90.9688 108.836 91.4648 108.148 91.4688C107.578 91.4648 107.117 91.1133 107.07 90.6328H106.234C106.273 91.5352 107.078 92.1875 108.148 92.1875ZM113.086 92.1875C114.258 92.1875 115.129 91.4961 115.125 90.5547C115.129 89.8398 114.68 89.3203 113.906 89.2109V89.1719C114.516 89.0195 114.914 88.5586 114.906 87.9141C114.914 87.0781 114.215 86.375 113.102 86.375C112.047 86.375 111.195 87 111.172 87.9219H112C112.02 87.4102 112.527 87.0938 113.094 87.0938C113.691 87.0938 114.078 87.4453 114.078 87.9609C114.078 88.5039 113.629 88.8633 112.984 88.8594H112.5V89.5625H112.984C113.793 89.5664 114.258 89.9648 114.258 90.5234C114.258 91.0742 113.762 91.4453 113.078 91.4453C112.445 91.4453 111.953 91.1289 111.922 90.6328H111.047C111.082 91.5586 111.914 92.1875 113.086 92.1875Z" fill="#FF4E16"/>
<g clip-path="url(#clip1_2662_29703)">
<path d="M82.5373 92.7725C82.2206 93.06 81.7331 93.06 81.4165 92.7684L81.3706 92.7267C79.1831 90.7475 77.754 89.4517 77.8081 87.835C77.8331 87.1267 78.1956 86.4475 78.7831 86.0475C79.8831 85.2975 81.2415 85.6475 81.9748 86.5059C82.7081 85.6475 84.0665 85.2934 85.1665 86.0475C85.754 86.4475 86.1165 87.1267 86.1415 87.835C86.1998 89.4517 84.7665 90.7475 82.579 92.735L82.5373 92.7725Z" fill="#FF4E16"/>
</g>
</g>
<g filter="url(#filter1_d_2662_29703)">
<rect x="34.5" y="111.5" width="243" height="67" rx="11.5" fill="white" stroke="#ECEFF4"/>
<g clip-path="url(#clip2_2662_29703)">
<rect x="48" y="119" width="23.1795" height="23.1795" rx="11.5897" fill="#F8C055"/>
<path fill-rule="evenodd" clip-rule="evenodd" d="M56.9486 122.557C57.7339 122.343 58.7247 122.485 59.9651 123.074C60.1128 123.144 60.1756 123.321 60.1054 123.468C60.0353 123.616 59.8587 123.679 59.7111 123.609C58.5367 123.051 57.699 122.966 57.1041 123.128C56.5191 123.288 56.1105 123.702 55.8254 124.281C55.5376 124.865 55.3873 125.595 55.3199 126.332C55.3092 126.448 55.3007 126.563 55.294 126.678C55.9469 126.514 56.6304 126.427 57.3343 126.427C58.2636 126.427 59.1573 126.579 59.9922 126.859C60.1033 125.883 60.3988 124.793 60.9388 123.977C61.3407 123.37 61.8969 122.887 62.637 122.748C63.3757 122.609 64.2322 122.825 65.2094 123.477C65.3454 123.568 65.3821 123.751 65.2914 123.887C65.2008 124.023 65.017 124.06 64.881 123.969C63.9806 123.369 63.2811 123.229 62.7462 123.329C62.2128 123.43 61.7781 123.781 61.4324 124.304C60.9278 125.067 60.6535 126.136 60.5646 127.075C63.5693 128.338 65.6793 131.309 65.6793 134.772C65.6793 139.381 61.9431 143.117 57.3343 143.117C52.7255 143.117 48.9893 139.381 48.9893 134.772C48.9893 131.086 51.3786 127.959 54.6928 126.854C54.7005 126.665 54.7126 126.472 54.7304 126.278C54.8009 125.508 54.9611 124.695 55.2945 124.019C55.6304 123.337 56.1535 122.774 56.9486 122.557Z" fill="#FDE4B4"/>
<path fill-rule="evenodd" clip-rule="evenodd" d="M60.0498 133.497C60.0498 133.368 60.1541 133.264 60.2826 133.264H61.6797C61.8083 133.264 61.9125 133.368 61.9125 133.497C61.9125 133.625 61.8083 133.729 61.6797 133.729H60.2826C60.1541 133.729 60.0498 133.625 60.0498 133.497Z" fill="black"/>
<path d="M56.9337 131.125C56.8818 130.974 56.9941 130.816 57.1539 130.816H60.2779C60.4377 130.816 60.55 130.974 60.4981 131.125L60.0985 132.289C60.0662 132.383 59.9778 132.446 59.8783 132.446H57.5535C57.4541 132.446 57.3656 132.383 57.3333 132.289L56.9337 131.125Z" fill="black"/>
<path d="M61.4093 131.125C61.3574 130.974 61.4697 130.816 61.6295 130.816H64.7535C64.9133 130.816 65.0256 130.974 64.9737 131.125L64.5741 132.289C64.5418 132.383 64.4533 132.446 64.3539 132.446H62.0291C61.9296 132.446 61.8412 132.383 61.8089 132.289L61.4093 131.125Z" fill="black"/>
<path d="M56.6748 130.979C56.6748 130.889 56.7478 130.816 56.8378 130.816H65.127C65.217 130.816 65.29 130.889 65.29 130.979C65.29 131.069 65.217 131.142 65.127 131.142H56.8378C56.7478 131.142 56.6748 131.069 56.6748 130.979Z" fill="black"/>
<path fill-rule="evenodd" clip-rule="evenodd" d="M56.5576 130.981C56.5576 130.826 56.6827 130.701 56.837 130.701H65.1262C65.2806 130.701 65.4057 130.826 65.4057 130.981C65.4057 131.135 65.2806 131.26 65.1262 131.26H56.837C56.6827 131.26 56.5576 131.135 56.5576 130.981ZM56.837 130.934C56.8113 130.934 56.7905 130.955 56.7905 130.981C56.7905 131.006 56.8113 131.027 56.837 131.027H65.1262C65.152 131.027 65.1728 131.006 65.1728 130.981C65.1728 130.955 65.152 130.934 65.1262 130.934H56.837Z" fill="black"/>
<mask id="mask0_2662_29703" style="mask-type:alpha" maskUnits="userSpaceOnUse" x="56" y="130" width="10" height="3">
<path d="M56.9337 131.125C56.8818 130.974 56.9941 130.816 57.1539 130.816H60.2779C60.4377 130.816 60.55 130.974 60.4981 131.125L60.0985 132.289C60.0662 132.383 59.9778 132.446 59.8783 132.446H57.5535C57.4541 132.446 57.3656 132.383 57.3333 132.289L56.9337 131.125Z" fill="black"/>
<path d="M61.4093 131.125C61.3574 130.974 61.4697 130.816 61.6295 130.816H64.7535C64.9133 130.816 65.0256 130.974 64.9737 131.125L64.5741 132.289C64.5418 132.383 64.4533 132.446 64.3539 132.446H62.0291C61.9296 132.446 61.8412 132.383 61.8089 132.289L61.4093 131.125Z" fill="black"/>
<path d="M56.6748 130.979C56.6748 130.889 56.7478 130.816 56.8378 130.816H65.127C65.217 130.816 65.29 130.889 65.29 130.979C65.29 131.069 65.217 131.142 65.127 131.142H56.8378C56.7478 131.142 56.6748 131.069 56.6748 130.979Z" fill="black"/>
<path fill-rule="evenodd" clip-rule="evenodd" d="M56.5576 130.981C56.5576 130.826 56.6827 130.701 56.837 130.701H65.1262C65.2806 130.701 65.4057 130.826 65.4057 130.981C65.4057 131.135 65.2806 131.26 65.1262 131.26H56.837C56.6827 131.26 56.5576 131.135 56.5576 130.981ZM56.837 130.934C56.8113 130.934 56.7905 130.955 56.7905 130.981C56.7905 131.006 56.8113 131.027 56.837 131.027H65.1262C65.152 131.027 65.1728 131.006 65.1728 130.981C65.1728 130.955 65.152 130.934 65.1262 130.934H56.837Z" fill="black"/>
</mask>
<g mask="url(#mask0_2662_29703)">
<path fill-rule="evenodd" clip-rule="evenodd" d="M59.5773 130.604C59.6102 130.604 59.6391 130.625 59.6479 130.657L60.183 132.571C60.1892 132.593 60.1847 132.616 60.1708 132.635C60.157 132.653 60.1353 132.664 60.1124 132.664H59.5773C59.5443 132.664 59.5154 132.642 59.5066 132.61L58.9715 130.697C58.9653 130.675 58.9698 130.651 58.9837 130.633C58.9976 130.614 59.0192 130.604 59.0421 130.604H59.5773ZM64.0585 130.604C64.0914 130.604 64.1203 130.625 64.1292 130.657L64.6643 132.571C64.6705 132.593 64.666 132.616 64.6521 132.635C64.6382 132.653 64.6166 132.664 64.5936 132.664H64.0585C64.0256 132.664 63.9967 132.642 63.9878 132.61L63.4527 130.697C63.4465 130.675 63.4511 130.651 63.4649 130.633C63.4788 130.614 63.5005 130.604 63.5234 130.604H64.0585Z" fill="white"/>
</g>
</g>
<path opacity="0.8" d="M84.2663 125.706H81.2698V125.044H83.4599V124.195H79.1392V123.236H83.4174V122.396H78.0611V125.044H80.2088V125.706H77.2038V126.555H84.2663V125.706ZM78.0102 128.372C78.0102 129.276 79.0288 129.789 80.7181 129.789C82.3946 129.789 83.4005 129.276 83.409 128.372C83.4005 127.455 82.3946 126.946 80.7181 126.946C79.0288 126.946 78.0102 127.455 78.0102 128.372ZM79.1137 128.372C79.1095 127.973 79.6485 127.769 80.7181 127.769C81.7664 127.769 82.3182 127.973 82.3224 128.372C82.3182 128.775 81.7664 128.966 80.7181 128.966C79.6485 128.966 79.1095 128.775 79.1137 128.372ZM89.3 122.744H87.5514V122.014H86.4733V122.744H84.7162V123.601H89.3V122.744ZM85.0897 125.274C85.0897 126.122 85.8876 126.695 87.0081 126.7C88.1328 126.695 88.9096 126.122 88.9096 125.274C88.9096 124.425 88.1328 123.852 87.0081 123.847C85.8876 123.852 85.0897 124.425 85.0897 125.274ZM85.6415 128.092H89.7584V129.781H90.845V127.226H85.6415V128.092ZM86.1508 125.274C86.1465 124.875 86.4903 124.662 87.0081 124.662C87.5302 124.662 87.8824 124.875 87.8824 125.274C87.8824 125.668 87.5302 125.872 87.0081 125.868C86.4903 125.872 86.1465 125.668 86.1508 125.274ZM89.7584 126.903H90.845V124.942H91.889V124.06H90.845V122.056H89.7584V126.903ZM98.8921 122.056H97.848V124.985H97.1435V122.26H96.1333V129.441H97.1435V125.851H97.848V129.781H98.8921V122.056ZM92.1352 127.447L92.7634 128.194C94.9407 126.929 95.5858 125.163 95.5901 123.007H92.5257V123.873H94.5332C94.3889 125.388 93.7098 126.521 92.1352 127.447ZM103.858 122.752H100.123V127.939H103.858V122.752ZM101.21 127.082V123.601H102.805V127.082H101.21ZM105.114 129.798H106.209V122.056H105.114V129.798Z" fill="#2D3036"/>
<path opacity="0.4" d="M114.222 128.5H117.667V127.835H115.305V127.793L116.344 126.739C117.306 125.794 117.575 125.338 117.582 124.765C117.575 123.934 116.893 123.308 115.906 123.308C114.93 123.308 114.215 123.927 114.222 124.864H114.958C114.961 124.319 115.322 123.959 115.892 123.959C116.429 123.959 116.84 124.28 116.84 124.786C116.84 125.235 116.56 125.561 115.998 126.144L114.222 127.934V128.5ZM124.104 126.081H118.304V126.618H120.921V127.786H121.586V126.618H124.104V126.081ZM119.025 128.967H123.461V128.422H119.69V127.234H119.025V128.967ZM119.068 125.522H123.34V122.961H122.668V123.732H119.733V122.961H119.068V125.522ZM119.733 124.984V124.234H122.668V124.984H119.733ZM129.855 122.77H129.183V124.482H127.974V125.027H129.183V127.411H129.855V122.77ZM124.578 126.088L124.925 126.633C125.678 126.364 126.234 125.805 126.509 125.105C126.785 125.734 127.312 126.243 128.023 126.491L128.37 125.953C127.411 125.635 126.838 124.839 126.842 124.051V123.803H128.2V123.251H124.783V123.803H126.156V124.051C126.159 124.924 125.551 125.759 124.578 126.088ZM125.738 128.967H130.025V128.422H126.41V126.993H125.738V128.967Z" fill="#555A63"/>
<path d="M84.1446 140.107H83.3722V148.931H84.1446V144.247H85.6202V143.593H84.1446V140.107ZM77.7174 146.723H78.4106C80.0843 146.723 81.238 146.673 82.6195 146.426L82.5205 145.752C81.2083 145.995 80.0843 146.064 78.4898 146.069V141.613H81.8272V140.969H77.7174V146.723ZM94.1272 143.811H86.0956V144.435H94.1272V143.811ZM87.0661 145.832H92.3248V146.683H87.0859V148.813H93.3547V148.179H87.8584V147.268H93.0874V145.228H87.0661V145.832ZM87.1652 143.088H93.1666V142.455H87.9475V141.038H93.0774V140.414H87.1652V143.088ZM104.664 140.107H103.882V148.931H104.664V140.107ZM97.732 143.861C97.737 145.738 98.6679 146.926 99.9801 146.921C101.287 146.926 102.233 145.738 102.228 143.861C102.233 141.989 101.287 140.796 99.9801 140.791C98.6679 140.796 97.737 141.989 97.732 143.861ZM98.4847 143.861C98.4847 142.43 99.0987 141.489 99.9801 141.484C100.866 141.489 101.475 142.43 101.475 143.861C101.475 145.292 100.866 146.233 99.9801 146.228C99.0987 146.233 98.4847 145.292 98.4847 143.861ZM113.468 140.117H112.686V142.593H110.606V140.702H109.844V142.266H107.388V140.702H106.615V145.128H110.606V143.247H112.686V146.634H113.468V140.117ZM107.388 144.485V142.88H109.844V144.485H107.388ZM107.774 148.723H113.667V148.07H108.556V145.99H107.774V148.723ZM124.699 140.107H123.926V148.912H124.699V140.107ZM117.529 146.564L117.648 147.228C119.282 147.228 121.436 147.198 123.401 146.881L123.342 146.287C122.53 146.396 121.668 146.456 120.817 146.495V145.564C121.862 145.445 122.545 144.841 122.54 143.97C122.545 142.974 121.683 142.331 120.411 142.336C119.138 142.331 118.291 142.974 118.301 143.97C118.291 144.851 118.975 145.455 120.034 145.564V146.525C119.143 146.555 118.281 146.56 117.529 146.564ZM117.717 141.831H123.114V141.197H120.817V140.117H120.034V141.197H117.717V141.831ZM119.024 143.97C119.019 143.356 119.594 142.94 120.411 142.94C121.233 142.94 121.802 143.356 121.797 143.97C121.802 144.579 121.233 144.98 120.411 144.97C119.594 144.98 119.019 144.579 119.024 143.97ZM129.175 142.979V142.276H131.176V141.642H129.195V140.276H128.413V141.642H126.402V142.276H128.422V142.979C128.418 144.495 127.457 146 126.165 146.604L126.61 147.208C127.61 146.723 128.427 145.703 128.814 144.475C129.18 145.609 129.948 146.574 130.918 147.05L131.374 146.446C130.096 145.832 129.18 144.391 129.175 142.979ZM132.285 148.912H133.057V144.386H134.533V143.722H133.057V140.107H132.285V148.912ZM139.92 140.791C138.618 140.796 137.707 141.989 137.712 143.861C137.707 145.738 138.618 146.926 139.92 146.921C141.148 146.926 142.03 145.846 142.114 144.118H144.08V148.931H144.852V140.107H144.08V143.475H142.104C141.985 141.826 141.119 140.796 139.92 140.791ZM138.455 143.861C138.46 142.43 139.054 141.489 139.92 141.484C140.782 141.489 141.386 142.43 141.386 143.861C141.386 145.292 140.782 146.233 139.92 146.228C139.054 146.233 138.46 145.292 138.455 143.861ZM148.774 140.999H146.595V146.644H146.962C147.521 146.644 148.155 146.639 148.913 146.465L148.813 145.812C148.274 145.941 147.788 145.98 147.358 145.99V141.642H148.774V140.999ZM149.259 146.644H149.705C150.621 146.644 151.289 146.624 152.111 146.426L152.032 145.782C151.359 145.95 150.759 145.985 150.041 145.99V141.642H151.666V140.999H149.259V146.644ZM151.23 143.98H152.933V148.912H153.716V140.107H152.933V143.346H151.23V143.98ZM162.381 140.107H161.599V141.177H159.836V141.811H161.599V142.92H159.836V143.554H161.599V145.277H162.381V140.107ZM155.092 144.465L155.528 145.079C156.558 144.668 157.335 143.846 157.707 142.796C158.088 143.762 158.841 144.539 159.796 144.93L160.242 144.316C158.955 143.831 158.073 142.618 158.083 141.355V140.434H157.32V141.355C157.311 142.747 156.429 143.955 155.092 144.465ZM155.577 148.218L155.964 148.803C156.805 148.481 157.41 147.862 157.726 147.154C157.994 147.892 158.539 148.545 159.38 148.872C160.202 148.525 160.742 147.842 161.019 147.124C161.316 147.867 161.93 148.481 162.807 148.803L163.213 148.218C162.064 147.837 161.406 146.921 161.411 146.01V145.584H160.648V146.01C160.643 146.688 160.212 147.584 159.365 148.114C158.529 147.629 158.108 146.802 158.113 146.01V145.584H157.37V146.01C157.36 146.862 156.692 147.817 155.577 148.218ZM172.086 143.623H170.66V140.107H169.888V148.912H170.66V144.277H172.086V143.623ZM164.213 146.673H164.916C166.248 146.673 167.615 146.584 169.135 146.277L169.036 145.614C167.585 145.921 166.273 146.02 164.986 146.02V140.979H164.213V146.673ZM180.673 147.129H178.672V144.732C179.4 144.341 179.841 143.717 179.841 142.93C179.841 141.568 178.504 140.672 176.622 140.662C174.74 140.672 173.403 141.568 173.403 142.93C173.403 143.732 173.859 144.366 174.612 144.757V147.129H172.611V147.783H180.673V147.129ZM174.156 142.93C174.151 141.945 175.176 141.296 176.622 141.306C178.053 141.296 179.088 141.945 179.088 142.93C179.088 143.915 178.053 144.574 176.622 144.574C175.176 144.574 174.151 143.915 174.156 142.93ZM175.374 147.129V145.039C175.751 145.138 176.171 145.188 176.622 145.188C177.083 145.188 177.508 145.133 177.89 145.034V147.129H175.374ZM182.782 146.04V146.089H183.634V146.04C183.653 145.183 183.876 144.802 184.495 144.425C185.109 144.049 185.476 143.509 185.476 142.732C185.476 141.638 184.669 140.84 183.426 140.84C182.292 140.84 181.386 141.539 181.336 142.742H182.237C182.292 141.925 182.861 141.588 183.426 141.593C184.079 141.588 184.604 142.019 184.604 142.692C184.604 143.247 184.292 143.643 183.881 143.891C183.198 144.306 182.792 144.713 182.782 146.04ZM182.604 147.525C182.594 147.877 182.891 148.164 183.238 148.169C183.589 148.164 183.876 147.877 183.871 147.525C183.876 147.178 183.589 146.891 183.238 146.891C182.891 146.891 182.594 147.178 182.604 147.525ZM193.25 140.603H189.199V144.703H189.863C191.685 144.698 192.7 144.658 193.913 144.445L193.824 143.811C192.665 144.019 191.69 144.069 189.972 144.069V142.94H193.081V142.306H189.972V141.236H193.25V140.603ZM190.091 148.793H195.666V145.386H194.894V146.436H190.863V145.386H190.091V148.793ZM190.863 148.159V147.05H194.894V148.159H190.863ZM194.894 144.99H195.666V142.841H196.993V142.177H195.666V140.107H194.894V144.99ZM201.965 140.662V140.256H201.163V140.662C201.163 141.811 199.573 142.786 198.013 142.989L198.32 143.603C199.677 143.395 201.014 142.697 201.569 141.687C202.128 142.682 203.465 143.395 204.807 143.603L205.094 142.989C203.564 142.786 201.96 141.786 201.965 140.662ZM197.548 144.95H205.57V144.316H197.548V144.95ZM198.518 147.337C198.513 148.342 199.647 148.902 201.559 148.912C203.445 148.902 204.579 148.342 204.589 147.337C204.579 146.332 203.445 145.777 201.559 145.782C199.647 145.777 198.513 146.332 198.518 147.337ZM199.311 147.337C199.301 146.738 200.147 146.386 201.559 146.376C202.955 146.386 203.802 146.738 203.807 147.337C203.802 147.946 202.955 148.293 201.559 148.288C200.147 148.293 199.301 147.946 199.311 147.337ZM213.195 140.107H212.423V145.277H213.195V143.009H214.522V142.346H213.195V140.107ZM206.302 144.574L206.619 145.178C209.219 144.49 210.774 142.9 210.779 140.672H206.699V141.316H209.952C209.793 142.811 208.461 143.99 206.302 144.574ZM207.431 146.317H212.423V148.912H213.195V145.683H207.431V146.317ZM222.346 140.117H221.573V146.555H222.346V140.117ZM215.285 142.89C215.28 144.173 216.275 145.064 217.592 145.059C218.909 145.064 219.895 144.173 219.9 142.89C219.895 141.623 218.909 140.736 217.592 140.731C216.275 140.736 215.28 141.623 215.285 142.89ZM216.047 142.89C216.037 142.029 216.701 141.415 217.592 141.415C218.469 141.415 219.137 142.029 219.137 142.89C219.137 143.767 218.469 144.376 217.592 144.376C216.701 144.376 216.037 143.767 216.047 142.89ZM216.661 148.723H222.623V148.07H217.434V145.901H216.661V148.723ZM230.655 140.107H229.882V148.912H230.655V144.346H232.081V143.692H230.655V140.107ZM223.901 146.624L224.336 147.238C227.203 145.822 228.372 143.549 228.377 141.058H224.307V141.712H227.59C227.411 143.796 226.173 145.495 223.901 146.624ZM240.667 147.129H238.667V144.732C239.394 144.341 239.835 143.717 239.835 142.93C239.835 141.568 238.498 140.672 236.617 140.662C234.735 140.672 233.398 141.568 233.398 142.93C233.398 143.732 233.854 144.366 234.606 144.757V147.129H232.606V147.783H240.667V147.129ZM234.151 142.93C234.146 141.945 235.171 141.296 236.617 141.306C238.048 141.296 239.082 141.945 239.082 142.93C239.082 143.915 238.048 144.574 236.617 144.574C235.171 144.574 234.146 143.915 234.151 142.93ZM235.369 147.129V145.039C235.745 145.138 236.166 145.188 236.617 145.188C237.077 145.188 237.503 145.133 237.884 145.034V147.129H235.369ZM242.776 146.04V146.089H243.628V146.04C243.648 145.183 243.871 144.802 244.49 144.425C245.104 144.049 245.47 143.509 245.47 142.732C245.47 141.638 244.663 140.84 243.42 140.84C242.286 140.84 241.38 141.539 241.331 142.742H242.232C242.286 141.925 242.856 141.588 243.42 141.593C244.074 141.588 244.599 142.019 244.599 142.692C244.599 143.247 244.287 143.643 243.876 143.891C243.192 144.306 242.786 144.713 242.776 146.04ZM242.598 147.525C242.588 147.877 242.885 148.164 243.232 148.169C243.584 148.164 243.871 147.877 243.866 147.525C243.871 147.178 243.584 146.891 243.232 146.891C242.885 146.891 242.588 147.178 242.598 147.525Z" fill="#1C1C1C"/>
<path d="M91.0547 168.109H91.9531L94.4688 163.219V162.453H90.6641V163.188H93.5781V163.234L91.0547 168.109ZM95.375 167.57H94.5L94.0859 169.727H94.75L95.375 167.57ZM98.3281 168.188C99.5078 168.188 100.344 167.387 100.344 166.273C100.344 165.184 99.5586 164.395 98.4922 164.391C98.0625 164.395 97.6641 164.547 97.4297 164.773H97.375L97.5625 163.188H100.055V162.453H96.8516L96.4844 165.602H97.2969C97.4883 165.254 97.8359 165.102 98.2891 165.102C99 165.109 99.5078 165.609 99.5078 166.297C99.5078 166.969 99.0156 167.465 98.3281 167.469C97.7578 167.465 97.2969 167.113 97.25 166.633H96.4141C96.4531 167.535 97.2578 168.188 98.3281 168.188ZM101.133 167.008H103.883V168.109H104.695V167.008H105.469V166.281H104.695V162.453H103.633L101.133 166.312V167.008ZM102.039 166.281V166.234L103.82 163.477H103.883V166.281H102.039ZM106.336 168.109H110.141V167.375H107.531V167.328L108.68 166.164C109.742 165.121 110.039 164.617 110.047 163.984C110.039 163.066 109.285 162.375 108.195 162.375C107.117 162.375 106.328 163.059 106.336 164.094H107.148C107.152 163.492 107.551 163.094 108.18 163.094C108.773 163.094 109.227 163.449 109.227 164.008C109.227 164.504 108.918 164.863 108.297 165.508L106.336 167.484V168.109Z" fill="#FF4E16"/>
<g clip-path="url(#clip3_2662_29703)">
<path d="M82.5373 168.773C82.2206 169.06 81.7331 169.06 81.4165 168.768L81.3706 168.727C79.1831 166.748 77.754 165.452 77.8081 163.835C77.8331 163.127 78.1956 162.448 78.7831 162.048C79.8831 161.298 81.2415 161.648 81.9748 162.506C82.7081 161.648 84.0665 161.293 85.1665 162.048C85.754 162.448 86.1165 163.127 86.1415 163.835C86.1998 165.452 84.7665 166.748 82.579 168.735L82.5373 168.773Z" fill="#FF4E16"/>
</g>
</g>
<defs>
<filter id="filter0_d_2662_29703" x="22" y="11" width="268" height="106" filterUnits="userSpaceOnUse" color-interpolation-filters="sRGB">
<feFlood flood-opacity="0" result="BackgroundImageFix"/>
<feColorMatrix in="SourceAlpha" type="matrix" values="0 0 0 0 0 0 0 0 0 0 0 0 0 0 0 0 0 0 127 0" result="hardAlpha"/>
<feOffset dy="2"/>
<feGaussianBlur stdDeviation="6"/>
<feComposite in2="hardAlpha" operator="out"/>
<feColorMatrix type="matrix" values="0 0 0 0 0.109804 0 0 0 0 0.109804 0 0 0 0 0.109804 0 0 0 0.06 0"/>
<feBlend mode="normal" in2="BackgroundImageFix" result="effect1_dropShadow_2662_29703"/>
<feBlend mode="normal" in="SourceGraphic" in2="effect1_dropShadow_2662_29703" result="shape"/>
</filter>
<filter id="filter1_d_2662_29703" x="22" y="101" width="268" height="92" filterUnits="userSpaceOnUse" color-interpolation-filters="sRGB">
<feFlood flood-opacity="0" result="BackgroundImageFix"/>
<feColorMatrix in="SourceAlpha" type="matrix" values="0 0 0 0 0 0 0 0 0 0 0 0 0 0 0 0 0 0 127 0" result="hardAlpha"/>
<feOffset dy="2"/>
<feGaussianBlur stdDeviation="6"/>
<feComposite in2="hardAlpha" operator="out"/>
<feColorMatrix type="matrix" values="0 0 0 0 0.109804 0 0 0 0 0.109804 0 0 0 0 0.109804 0 0 0 0.06 0"/>
<feBlend mode="normal" in2="BackgroundImageFix" result="effect1_dropShadow_2662_29703"/>
<feBlend mode="normal" in="SourceGraphic" in2="effect1_dropShadow_2662_29703" result="shape"/>
</filter>
<clipPath id="clip0_2662_29703">
<rect x="48" y="29" width="23.1795" height="23.1795" rx="11.5897" fill="white"/>
</clipPath>
<clipPath id="clip1_2662_29703">
<rect width="10" height="10" fill="white" transform="translate(76.9746 84.3848)"/>
</clipPath>
<clipPath id="clip2_2662_29703">
<rect x="48" y="119" width="23.1795" height="23.1795" rx="11.5897" fill="white"/>
</clipPath>
<clipPath id="clip3_2662_29703">
<rect width="10" height="10" fill="white" transform="translate(76.9746 160.385)"/>
</clipPath>
</defs>
</svg>
