<svg width="207" height="20" viewBox="0 0 207 20" fill="none" xmlns="http://www.w3.org/2000/svg">
<path d="M36.7051 3.85742H35.1875V16.2168H36.7051V3.85742ZM26.4648 12.7852L26.6836 14.043C28.9053 14.043 31.8584 14.0088 34.5723 13.5508L34.4629 12.416C33.4307 12.5527 32.3369 12.6416 31.25 12.6895V11.6025C32.6377 11.377 33.5469 10.5361 33.5469 9.36719C33.5469 7.97266 32.2891 7.0498 30.4707 7.04297C28.6729 7.0498 27.4355 7.97266 27.4355 9.36719C27.4355 10.543 28.3447 11.3906 29.7324 11.6094V12.7441C28.5635 12.7783 27.4492 12.7783 26.4648 12.7852ZM26.7246 6.48242H34.2441V5.2793H31.25V3.89844H29.7324V5.2793H26.7246V6.48242ZM28.8848 9.36719C28.8711 8.64941 29.5342 8.21191 30.4707 8.20508C31.4346 8.21191 32.0908 8.64941 32.084 9.36719C32.0908 10.0781 31.4346 10.4951 30.4707 10.4883C29.5342 10.4951 28.8711 10.0781 28.8848 9.36719ZM48.873 3.87109H47.3418V11.0762H44.9219V12.1426H47.3418V13.2227H48.873V3.87109ZM38.4551 9.42188L38.6465 10.6387C39.6172 10.6387 40.7178 10.6318 41.873 10.584V12.8809H43.3906V10.502C44.4365 10.4268 45.4893 10.3174 46.5078 10.1465L46.4258 9.05273C43.8008 9.3877 40.7314 9.4082 38.4551 9.42188ZM39.3984 6.50977C39.3984 7.83594 40.6562 8.67676 42.4883 8.68359C44.2861 8.67676 45.5508 7.83594 45.5645 6.50977C45.5508 5.2041 44.2861 4.31543 42.4883 4.32227C40.6562 4.31543 39.3984 5.2041 39.3984 6.50977ZM40.0957 15.9707H49.1602V14.7402H41.6133V12.3203H40.0957V15.9707ZM40.834 6.50977C40.834 5.83984 41.4971 5.43652 42.4883 5.44336C43.4316 5.43652 44.1084 5.83984 44.1152 6.50977C44.1084 7.17969 43.4316 7.56934 42.4883 7.57617C41.4971 7.56934 40.834 7.17969 40.834 6.50977ZM60.2891 3.85742H58.7715V16.1895H60.2891V9.95508H62.1211V8.68359H60.2891V3.85742ZM50.541 12.8125L51.4023 13.9883C55.5107 11.9648 57.0146 8.77246 57.0215 5.14258H51.2109V6.40039H55.4766C55.1758 9.2168 53.5488 11.3086 50.541 12.8125ZM73.0039 3.85742H71.4727V10.4883H73.0039V3.85742ZM62.9277 7.30273C62.9277 8.99121 64.3496 10.1807 66.2637 10.1738C68.1709 10.1807 69.5928 8.99121 69.5859 7.30273C69.5928 5.58691 68.1709 4.39746 66.2637 4.4043C64.3496 4.39746 62.9277 5.58691 62.9277 7.30273ZM64.418 7.30273C64.4111 6.31152 65.1836 5.66895 66.2637 5.67578C67.3232 5.66895 68.0957 6.31152 68.0957 7.30273C68.0957 8.29395 67.3232 8.92285 66.2637 8.92969C65.1836 8.92285 64.4111 8.29395 64.418 7.30273ZM64.8281 16.0664H73.0039V11.0625H71.4863V12.334H66.332V11.0625H64.8281V16.0664ZM66.332 14.8359V13.5234H71.4863V14.8359H66.332ZM87.8105 3.85742H86.3066V16.2168H87.8105V10.0371H89.7109V8.7793H87.8105V3.85742ZM78.0625 6.97461H85.3496V5.75781H82.5059V4.03516H80.9883V5.75781H78.0625V6.97461ZM78.6367 10.6934C78.623 12.3955 79.9492 13.5918 81.7539 13.5918C83.5312 13.5918 84.8506 12.3955 84.8574 10.6934C84.8506 8.98438 83.5312 7.77441 81.7539 7.78125C79.9492 7.77441 78.623 8.98438 78.6367 10.6934ZM80.0859 10.6934C80.0791 9.68848 80.7832 9.02539 81.7539 9.02539C82.7041 9.02539 83.3945 9.68848 83.4082 10.6934C83.3945 11.6982 82.7041 12.3408 81.7539 12.334C80.7832 12.3408 80.0791 11.6982 80.0859 10.6934ZM96.5742 4.89648H90.7637V10.8164H96.5742V9.75H99.0625V12.8672H100.58V3.87109H99.0625V5.88086H96.5742V4.89648ZM92.2812 9.62695V6.09961H95.0703V9.62695H92.2812ZM92.4316 15.9707H100.854V14.7402H93.9766V12.0332H92.4316V15.9707ZM96.5742 8.5332V7.125H99.0625V8.5332H96.5742Z" fill="#1C1C1C"/>
<path d="M109.658 15.1367C111.798 15.1367 113.363 13.9268 113.35 12.252C113.363 11.0078 112.57 10.1123 111.176 9.92773V9.8457C112.256 9.62012 112.994 8.82031 112.98 7.71289C112.994 6.19531 111.695 4.96484 109.686 4.96484C107.751 4.96484 106.24 6.10645 106.199 7.76758H107.908C107.942 6.93359 108.742 6.41406 109.672 6.41406C110.636 6.41406 111.265 6.97461 111.258 7.80859C111.265 8.66992 110.533 9.25781 109.48 9.25781H108.592V10.625H109.48C110.766 10.6318 111.531 11.2676 111.531 12.1562C111.531 13.0381 110.745 13.6396 109.658 13.6328C108.626 13.6396 107.833 13.1133 107.785 12.3203H105.994C106.035 13.9883 107.546 15.1367 109.658 15.1367ZM118.559 15.1367C120.938 15.1367 122.359 13.2979 122.359 10.0508C122.359 6.82422 120.931 4.96484 118.559 4.96484C116.187 4.96484 114.751 6.82422 114.758 10.0508C114.751 13.291 116.173 15.1367 118.559 15.1367ZM116.549 10.0508C116.556 7.69238 117.321 6.44824 118.559 6.44141C119.796 6.44824 120.562 7.69238 120.568 10.0508C120.568 12.4297 119.796 13.6396 118.559 13.6465C117.314 13.6396 116.549 12.4297 116.549 10.0508ZM136.51 3.85742H134.992V12.8945H136.51V8.73828H138.232V7.48047H136.51V3.85742ZM126.898 7.79492C126.892 9.59277 128.354 10.8984 130.234 10.8984C132.114 10.8984 133.557 9.59277 133.57 7.79492C133.557 5.96973 132.114 4.68457 130.234 4.67773C128.354 4.68457 126.892 5.96973 126.898 7.79492ZM128.389 7.79492C128.382 6.70117 129.202 6.00391 130.234 6.00391C131.28 6.00391 132.073 6.70117 132.08 7.79492C132.073 8.86133 131.28 9.56543 130.234 9.55859C129.202 9.56543 128.382 8.86133 128.389 7.79492ZM128.594 15.9707H137.002V14.7402H130.111V11.9512H128.594V15.9707ZM148.91 10.3379H141.787V8.73828H148.514V7.54883H141.787V6.05859H148.801V4.82812H140.242V11.541H148.91V10.3379ZM138.861 14.7129H150.154V13.4688H138.861V14.7129ZM161.01 4.95117H152.273V6.18164H159.52C159.52 6.71484 159.513 7.28906 159.485 7.93164L151.891 8.20508L152.109 9.50391L159.396 9.09375C159.321 9.87988 159.191 10.7617 158.973 11.7598L160.463 11.9102C161.023 9.29883 161.003 7.56934 161.01 6.07227V4.95117ZM150.961 14.6992H162.227V13.4414H156.621V10.3926H155.117V13.4414H150.961V14.6992ZM173.355 3.87109H171.824V12.7988H173.355V3.87109ZM163.279 7.76758C163.279 9.59277 164.735 10.8711 166.615 10.8711C168.495 10.8711 169.944 9.59277 169.938 7.76758C169.944 5.96973 168.495 4.68457 166.615 4.67773C164.735 4.68457 163.279 5.96973 163.279 7.76758ZM164.77 7.76758C164.763 6.70117 165.556 6.00391 166.615 6.00391C167.647 6.00391 168.447 6.70117 168.447 7.76758C168.447 8.86133 167.647 9.54492 166.615 9.54492C165.556 9.54492 164.763 8.86133 164.77 7.76758ZM165.18 15.9707H173.697V14.7402H166.711V11.8965H165.18V15.9707ZM183.145 7.37109V6.33203H185.852V5.07422H178.879V6.33203H181.6V7.37109C181.593 9.46973 180.376 11.7734 178.428 12.6758L179.303 13.8652C180.745 13.1816 181.832 11.7598 182.399 10.0645C182.967 11.6367 184.033 12.9287 185.496 13.5645L186.33 12.3613C184.334 11.5273 183.145 9.39453 183.145 7.37109ZM187.232 16.2168H188.764V3.85742H187.232V16.2168ZM193.467 10.8984H191.977V16.0664H200.453V10.8984H198.949V12.3203H193.467V10.8984ZM190.582 9.98242H201.875V8.76562H200.193C200.501 7.31641 200.501 6.29102 200.494 5.34766V4.39062H191.977V5.60742H198.977C198.977 6.47559 198.949 7.45996 198.689 8.76562H190.582V9.98242ZM193.467 14.8359V13.4961H198.949V14.8359H193.467ZM205.225 5.10156H203.365L203.529 12.0879H205.074L205.225 5.10156ZM203.242 14.043C203.235 14.6309 203.721 15.1094 204.309 15.1094C204.876 15.1094 205.361 14.6309 205.361 14.043C205.361 13.4688 204.876 12.9971 204.309 12.9902C203.721 12.9971 203.235 13.4688 203.242 14.043Z" fill="#FF4E16"/>
<path fill-rule="evenodd" clip-rule="evenodd" d="M9.9987 17.9154C14.371 17.9154 17.9154 14.371 17.9154 9.9987C17.9154 5.62644 14.371 2.08203 9.9987 2.08203C5.62644 2.08203 2.08203 5.62644 2.08203 9.9987C2.08203 14.371 5.62644 17.9154 9.9987 17.9154ZM9.9987 19.1654C15.0613 19.1654 19.1654 15.0613 19.1654 9.9987C19.1654 4.93609 15.0613 0.832031 9.9987 0.832031C4.93609 0.832031 0.832031 4.93609 0.832031 9.9987C0.832031 15.0613 4.93609 19.1654 9.9987 19.1654Z" fill="url(#paint0_linear_2690_21275)"/>
<circle cx="10" cy="10" r="10" fill="url(#paint1_linear_2690_21275)"/>
<circle cx="9.99665" cy="10.0006" r="8.28572" fill="url(#paint2_linear_2690_21275)"/>
<circle cx="10.0024" cy="10.0005" r="7.90476" fill="url(#paint3_linear_2690_21275)"/>
<path fill-rule="evenodd" clip-rule="evenodd" d="M9.35264 5.52344H10.638L12.1729 9.06641H14.1693V10.3164H12.7145L14.0678 13.4401H12.539L11.2299 10.3164H8.75063L7.44153 13.4401H5.93359L7.28266 10.3164H5.83594V9.06641H7.82251L9.35264 5.52344ZM9.27449 9.06641H10.7061L9.99028 7.35841L9.27449 9.06641Z" fill="url(#paint4_linear_2690_21275)"/>
<defs>
<linearGradient id="paint0_linear_2690_21275" x1="9.9987" y1="0.832031" x2="9.9987" y2="19.1654" gradientUnits="userSpaceOnUse">
<stop stop-color="#FFA487"/>
<stop offset="0.489583" stop-color="#FF7E55"/>
<stop offset="0.708337" stop-color="#FF4E16"/>
<stop offset="0.843756" stop-color="#E0410F"/>
<stop offset="1" stop-color="#BB3409"/>
</linearGradient>
<linearGradient id="paint1_linear_2690_21275" x1="10" y1="0" x2="10" y2="20" gradientUnits="userSpaceOnUse">
<stop stop-color="#FFA487"/>
<stop offset="0.489583" stop-color="#FF7E55"/>
<stop offset="0.708337" stop-color="#DD4110"/>
<stop offset="1" stop-color="#BB3409"/>
<stop offset="1" stop-color="#E0410F"/>
</linearGradient>
<linearGradient id="paint2_linear_2690_21275" x1="10.0919" y1="18.2863" x2="9.99665" y2="1.42913" gradientUnits="userSpaceOnUse">
<stop stop-color="#DD4E20"/>
</linearGradient>
<linearGradient id="paint3_linear_2690_21275" x1="10.0933" y1="17.9052" x2="10.0024" y2="1.82313" gradientUnits="userSpaceOnUse">
<stop stop-color="#C23407"/>
<stop offset="0.296871" stop-color="#DC5024"/>
<stop offset="0.619793" stop-color="#E86237"/>
<stop offset="1" stop-color="#FF9270"/>
</linearGradient>
<linearGradient id="paint4_linear_2690_21275" x1="11.048" y1="15.0472" x2="10.0956" y2="5.23772" gradientUnits="userSpaceOnUse">
<stop stop-color="#C1C1C1"/>
<stop offset="0.385877" stop-color="#E7E7E7"/>
<stop offset="1" stop-color="white"/>
</linearGradient>
</defs>
</svg>
