<svg width="16" height="16" viewBox="0 0 16 16" fill="none" xmlns="http://www.w3.org/2000/svg">
<path d="M8.00065 4.66732C8.36732 4.66732 8.66732 4.96732 8.66732 5.33399L8.66732 8.00065C8.66732 8.36732 8.36732 8.66732 8.00065 8.66732C7.63398 8.66732 7.33398 8.36732 7.33398 8.00065L7.33398 5.33399C7.33398 4.96732 7.63398 4.66732 8.00065 4.66732ZM7.99398 1.33399C4.31398 1.33398 1.33398 4.32065 1.33398 8.00065C1.33398 11.6807 4.31398 14.6673 7.99398 14.6673C11.6806 14.6673 14.6673 11.6807 14.6673 8.00065C14.6673 4.32065 11.6807 1.33399 7.99398 1.33399ZM8.00065 13.334C5.05398 13.334 2.66732 10.9473 2.66732 8.00065C2.66732 5.05398 5.05398 2.66732 8.00065 2.66732C10.9473 2.66732 13.334 5.05399 13.334 8.00065C13.334 10.9473 10.9473 13.334 8.00065 13.334ZM8.66732 10.6673C8.66732 11.0355 8.36884 11.334 8.00065 11.334V11.334C7.63246 11.334 7.33398 11.0355 7.33398 10.6673V10.6673C7.33398 10.2991 7.63246 10.0007 8.00065 10.0007V10.0007C8.36884 10.0007 8.66732 10.2991 8.66732 10.6673V10.6673Z" fill="white"/>
</svg>
