<svg width="20" height="20" viewBox="0 0 20 20" fill="none" xmlns="http://www.w3.org/2000/svg">
<path fill-rule="evenodd" clip-rule="evenodd" d="M9.9987 17.9173C14.371 17.9173 17.9154 14.3729 17.9154 10.0007C17.9154 5.6284 14.371 2.08398 9.9987 2.08398C5.62644 2.08398 2.08203 5.6284 2.08203 10.0007C2.08203 14.3729 5.62644 17.9173 9.9987 17.9173ZM9.9987 19.1673C15.0613 19.1673 19.1654 15.0633 19.1654 10.0007C19.1654 4.93804 15.0613 0.833984 9.9987 0.833984C4.93609 0.833984 0.832031 4.93804 0.832031 10.0007C0.832031 15.0633 4.93609 19.1673 9.9987 19.1673Z" fill="#FF4E16"/>
<path d="M6.25 13.75L9.4891 6.25H10.5007L13.75 13.75H12.6771L9.78542 6.85H10.1941L7.30245 13.75H6.25Z" fill="#FF4E16"/>
<path fill-rule="evenodd" clip-rule="evenodd" d="M9.35264 6.04102H10.638L14.0678 13.9577H12.539L9.99028 7.87599L7.44153 13.9577H5.93359L9.35264 6.04102ZM10.2162 7.33698L12.8162 13.541H13.4332L10.4764 6.71612L10.2162 7.33698ZM10.4438 6.64102L10.3644 6.45768H9.62656L9.54738 6.64102H10.4438ZM9.50949 6.72875L9.76439 7.33698L7.16437 13.541H6.56741L9.50949 6.72875Z" fill="#FF4E16"/>
<path d="M5.83203 9.58398H14.1654V10.834H5.83203V9.58398Z" fill="#FF4E16"/>
</svg>
