<svg width="72" height="72" viewBox="0 0 72 72" fill="none" xmlns="http://www.w3.org/2000/svg">
<path fill-rule="evenodd" clip-rule="evenodd" d="M36 64.5C51.7401 64.5 64.5 51.7401 64.5 36C64.5 20.2599 51.7401 7.5 36 7.5C20.2599 7.5 7.5 20.2599 7.5 36C7.5 51.7401 20.2599 64.5 36 64.5ZM36 69C54.2254 69 69 54.2254 69 36C69 17.7746 54.2254 3 36 3C17.7746 3 3 17.7746 3 36C3 54.2254 17.7746 69 36 69Z" fill="#FF4E16"/>
<circle cx="36" cy="36" r="36" fill="#FF4E16"/>
<circle cx="35.9996" cy="35.9996" r="32.4" fill="white"/>
<circle cx="36.0008" cy="36.0008" r="29.7" fill="#FF4E16"/>
<path d="M22.5 49.5L34.1608 22.5H37.8025L49.5 49.5H45.6376L35.2275 24.66H36.6989L26.2888 49.5H22.5Z" fill="white"/>
<path fill-rule="evenodd" clip-rule="evenodd" d="M33.668 21.75H38.2951L50.6425 50.25H45.139L35.9635 28.3559L26.788 50.25H21.3594L33.668 21.75ZM36.7767 26.4155L46.1367 48.75H48.3579L37.7133 24.1804L36.7767 26.4155ZM37.5962 23.91L37.3103 23.25H34.654L34.369 23.91H37.5962ZM34.2326 24.2258L35.1503 26.4155L25.7902 48.75H23.6411L34.2326 24.2258Z" fill="white"/>
<path d="M21 34.5H51V39H21V34.5Z" fill="white"/>
</svg>
