<svg width="16" height="14" viewBox="0 0 16 14" fill="none" xmlns="http://www.w3.org/2000/svg">
<path d="M2.93488 13.697H12.7154C13.1919 13.6971 13.6521 13.5233 14.0096 13.2082C14.3671 12.893 14.5974 12.4582 14.6569 11.9854L15.6348 4.161V4.16083C15.6979 3.6553 15.5613 3.14479 15.2538 2.73837C14.9465 2.33193 14.4926 2.0616 13.9888 1.98466C13.4849 1.90791 12.971 2.03071 12.5564 2.32697L10.9158 3.49819L9.53666 1.00905C9.31016 0.599536 8.94415 0.284852 8.50529 0.122164C8.06644 -0.0407212 7.58379 -0.0407212 7.14493 0.122164C6.70607 0.284878 6.34005 0.599575 6.11357 1.00905L4.73442 3.49579L3.09383 2.32457C2.67903 2.02797 2.16464 1.90517 1.66063 1.98209C1.15646 2.05918 0.702274 2.33003 0.395104 2.73698C0.087756 3.14393 -0.0485118 3.6549 0.0154415 4.16078L0.993406 11.9852V11.9854C1.05293 12.4582 1.28318 12.8929 1.64067 13.2081C1.99815 13.5233 2.45834 13.6971 2.93488 13.6969L2.93488 13.697ZM5.38001 6.36157L7.82514 1.96034L10.2703 6.36157L13.6934 3.91644L12.7154 11.7409H2.93488L1.95691 3.91644L5.38001 6.36157Z" fill="white"/>
</svg>
