<svg width="16" height="16" viewBox="0 0 16 16" fill="none" xmlns="http://www.w3.org/2000/svg">
<path d="M8.00032 11.3332C7.63366 11.3332 7.33366 11.0332 7.33366 10.6665L7.33366 7.99984C7.33366 7.63317 7.63366 7.33317 8.00032 7.33317C8.36699 7.33317 8.66699 7.63317 8.66699 7.99984L8.66699 10.6665C8.66699 11.0332 8.36699 11.3332 8.00032 11.3332ZM8.00699 14.6665C11.687 14.6665 14.667 11.6798 14.667 7.99984C14.667 4.31984 11.687 1.33317 8.00699 1.33317C4.32032 1.33317 1.33366 4.31984 1.33366 7.99984C1.33366 11.6798 4.32032 14.6665 8.00699 14.6665ZM8.00032 2.6665C10.947 2.6665 13.3337 5.05317 13.3337 7.99984C13.3337 10.9465 10.947 13.3332 8.00033 13.3332C5.05366 13.3332 2.66699 10.9465 2.66699 7.99984C2.66699 5.05317 5.05366 2.6665 8.00032 2.6665ZM7.33366 5.33317C7.33366 4.96498 7.63213 4.6665 8.00032 4.6665C8.36851 4.6665 8.66699 4.96498 8.66699 5.33317C8.66699 5.70136 8.36851 5.99984 8.00032 5.99984C7.63213 5.99984 7.33366 5.70136 7.33366 5.33317Z" fill="#B6BCC7"/>
</svg>
