<svg width="112" height="48" viewBox="0 0 112 48" fill="none" xmlns="http://www.w3.org/2000/svg">
<path d="M38.2351 35.0899C40.2716 31.8823 41.4511 28.0769 41.4511 23.996C41.4511 19.9152 40.2716 16.1098 38.2351 12.9022C36.1985 16.1098 35.0191 19.9152 35.0191 23.996C35.0191 28.0769 36.1985 31.8823 38.2351 35.0899Z" fill="#1C1C1C"/>
<path d="M37.3593 36.3621C34.9791 32.8303 33.5897 28.5754 33.5897 23.996C33.5897 19.4167 34.9791 15.1618 37.3593 11.63C33.5814 6.5566 27.5372 3.27051 20.7255 3.27051C9.27914 3.27051 0 12.5496 0 23.996C0 35.4424 9.27914 44.7216 20.7255 44.7216C27.5372 44.7216 33.5814 41.4355 37.3593 36.3621Z" fill="#1C1C1C"/>
<path d="M73.2536 35.0899C75.2902 31.8823 76.4696 28.0769 76.4696 23.996C76.4696 19.9152 75.2902 16.1098 73.2536 12.9021C71.217 16.1098 70.0376 19.9152 70.0376 23.996C70.0376 28.0769 71.217 31.8823 73.2536 35.0899Z" fill="#1C1C1C"/>
<path d="M72.3778 36.3621C69.9976 32.8303 68.6082 28.5754 68.6082 23.996C68.6082 19.4167 69.9976 15.1618 72.3778 11.6299C68.5999 6.55658 62.5558 3.27051 55.7441 3.27051C44.2977 3.27051 35.0186 12.5496 35.0186 23.996C35.0186 35.4424 44.2977 44.7216 55.7441 44.7216C62.5558 44.7216 68.5999 41.4355 72.3778 36.3621Z" fill="#1C1C1C"/>
<path d="M107.393 36.3675C109.966 32.9146 111.489 28.6332 111.489 23.996C111.489 12.5496 102.21 3.27051 90.7636 3.27051C79.3172 3.27051 70.0381 12.5496 70.0381 23.996C70.0381 35.4424 79.3172 44.7216 90.7636 44.7216C95.4891 44.7216 99.8451 43.1401 103.331 40.4776C105.87 41.4912 108.641 42.0487 111.542 42.0487C111.989 42.0487 112.164 41.4778 111.816 41.1954C110.165 39.8525 108.71 38.2766 107.503 36.5177C107.468 36.4664 107.431 36.4164 107.393 36.3675Z" fill="#1C1C1C"/>
</svg>
