<svg width="40" height="40" viewBox="0 0 40 40" fill="none" xmlns="http://www.w3.org/2000/svg">
<g opacity="0.7">
<path fill-rule="evenodd" clip-rule="evenodd" d="M19.9954 35.8346C28.74 35.8346 35.8288 28.7458 35.8288 20.0013C35.8288 11.2568 28.74 4.16797 19.9954 4.16797C11.2509 4.16797 4.16211 11.2568 4.16211 20.0013C4.16211 28.7458 11.2509 35.8346 19.9954 35.8346ZM19.9954 38.3346C30.1207 38.3346 38.3288 30.1265 38.3288 20.0013C38.3288 9.87608 30.1207 1.66797 19.9954 1.66797C9.87022 1.66797 1.66211 9.87608 1.66211 20.0013C1.66211 30.1265 9.87022 38.3346 19.9954 38.3346Z" fill="white"/>
<path d="M12.5 27.5L18.9782 12.5H21.0014L27.5 27.5H25.3542L19.5708 13.7H20.3883L14.6049 27.5H12.5Z" fill="white"/>
<path fill-rule="evenodd" clip-rule="evenodd" d="M18.7092 12.082H21.2798L28.1395 27.9154H25.082L19.9845 15.752L14.887 27.9154H11.8711L18.7092 12.082ZM20.4362 14.674L25.6363 27.082H26.8703L20.9566 13.4322L20.4362 14.674ZM20.8916 13.282L20.7327 12.9154H19.257L19.0987 13.282H20.8916ZM19.0229 13.4575L19.5327 14.674L14.3327 27.082H13.1387L19.0229 13.4575Z" fill="white"/>
<path d="M11.6621 19.168H28.3288V21.668H11.6621V19.168Z" fill="white"/>
</g>
</svg>
