<svg width="30" height="30" viewBox="0 0 30 30" fill="none" xmlns="http://www.w3.org/2000/svg">
<circle cx="15" cy="15" r="14.5" fill="white" stroke="#D9DEE5"/>
<path d="M22.3346 19.6667C22.3346 20.0203 22.1942 20.3594 21.9441 20.6095C21.6941 20.8595 21.3549 21 21.0013 21H9.0013C8.64768 21 8.30854 20.8595 8.05849 20.6095C7.80844 20.3594 7.66797 20.0203 7.66797 19.6667V12.3333C7.66797 11.9797 7.80844 11.6406 8.05849 11.3905C8.30854 11.1405 8.64768 11 9.0013 11H11.668L13.0013 9H17.0013L18.3346 11H21.0013C21.3549 11 21.6941 11.1405 21.9441 11.3905C22.1942 11.6406 22.3346 11.9797 22.3346 12.3333V19.6667Z" fill="#B6BCC7"/>
<path d="M14.9987 18.3333C16.4715 18.3333 17.6654 17.1394 17.6654 15.6667C17.6654 14.1939 16.4715 13 14.9987 13C13.5259 13 12.332 14.1939 12.332 15.6667C12.332 17.1394 13.5259 18.3333 14.9987 18.3333Z" stroke="white" stroke-width="0.8" stroke-linecap="round" stroke-linejoin="round"/>
</svg>
