<svg width="199" height="36" viewBox="0 0 199 36" fill="none" xmlns="http://www.w3.org/2000/svg">
<path d="M47.5039 26.9883H51.332V21.9297H56.3906V18.1289H51.332V13.0703H47.5039V18.1289H42.4453V21.9297H47.5039V26.9883ZM67.5742 28.2734C72.1953 28.2734 75.4902 25.8262 75.4766 22.3945C75.4902 19.9336 73.8906 18.1973 70.8555 17.8281V17.6914C73.1387 17.3496 74.752 15.8047 74.7383 13.5898C74.752 10.3633 71.8535 7.92969 67.6289 7.92969C63.3633 7.92969 60.2461 10.377 60.1914 13.8906H64.6758C64.7031 12.5098 65.9746 11.5801 67.6016 11.5664C69.1875 11.5801 70.2539 12.5234 70.2539 13.8633C70.2539 15.2852 68.9961 16.2559 67.1914 16.2422H65.2773V19.5781H67.1914C69.2695 19.5918 70.6094 20.6035 70.582 22.0391C70.6094 23.4746 69.3516 24.459 67.6016 24.4727C65.8379 24.459 64.5527 23.5566 64.5117 22.2305H59.8086C59.8496 25.7852 63.0625 28.2734 67.5742 28.2734ZM86.25 28.2734C91.3906 28.2734 94.5488 24.6094 94.5352 18.1016C94.5488 11.6348 91.3906 7.92969 86.25 7.92969C81.1094 7.92969 77.9648 11.6074 77.9648 18.1016C77.9648 24.5957 81.1094 28.2734 86.25 28.2734ZM82.75 18.1016C82.7637 13.7812 84.1582 11.7168 86.25 11.7031C88.3555 11.7168 89.75 13.7812 89.75 18.1016C89.7637 22.4902 88.3555 24.4727 86.25 24.4727C84.1445 24.4727 82.7363 22.4902 82.75 18.1016ZM122.699 5.55078H118.762V23.7344H122.699V15.832H125.953V12.6055H122.699V5.55078ZM102.793 13.5352C102.766 17.2402 105.869 19.9746 109.766 19.9609C113.635 19.9746 116.684 17.2402 116.684 13.5352C116.684 9.78906 113.635 7.0957 109.766 7.10938C105.869 7.0957 102.766 9.78906 102.793 13.5352ZM106.238 30.2148H123.52V27.0703H110.176V21.8203H106.238V30.2148ZM106.648 13.5352C106.635 11.5801 108.043 10.5137 109.766 10.5273C111.502 10.5137 112.842 11.5801 112.855 13.5352C112.842 15.4355 111.502 16.543 109.766 16.543C108.043 16.543 106.635 15.4355 106.648 13.5352ZM147.418 18.293H133.555V15.8047H146.625V12.7422H133.555V10.4453H147.227V7.27344H129.535V21.3828H147.418V18.293ZM126.91 27.8086H149.852V24.6367H126.91V27.8086ZM171.891 7.51953H153.68V10.6641H167.994C167.994 11.5527 167.967 12.5098 167.912 13.5625L152.832 14.0273L153.379 17.3633L167.666 16.5703C167.502 18.0332 167.242 19.6328 166.859 21.4102L170.688 21.793C171.918 16.2832 171.863 12.7012 171.891 9.67969V7.51953ZM151.109 27.8906H173.996V24.6914H162.977V18.8125H159.066V24.6914H151.109V27.8906ZM196.391 5.55078H192.453V23.4883H196.391V5.55078ZM175.637 13.4805C175.623 17.2402 178.699 19.9062 182.582 19.9062C186.465 19.9062 189.527 17.2402 189.527 13.4805C189.527 9.78906 186.465 7.0957 182.582 7.10938C178.699 7.0957 175.623 9.78906 175.637 13.4805ZM179.383 30.2148H197.02V27.0703H183.375V21.6836H179.383V30.2148ZM179.465 13.4805C179.465 11.5801 180.805 10.5137 182.582 10.5273C184.291 10.5137 185.631 11.5801 185.617 13.4805C185.631 15.4355 184.291 16.4883 182.582 16.4883C180.805 16.4883 179.465 15.4355 179.465 13.4805Z" fill="#FF4E16"/>
<path fill-rule="evenodd" clip-rule="evenodd" d="M16.0007 30.6673C22.9963 30.6673 28.6673 24.9963 28.6673 18.0007C28.6673 11.005 22.9963 5.33398 16.0007 5.33398C9.00504 5.33398 3.33398 11.005 3.33398 18.0007C3.33398 24.9963 9.00504 30.6673 16.0007 30.6673ZM16.0007 32.6673C24.1008 32.6673 30.6673 26.1008 30.6673 18.0007C30.6673 9.90047 24.1008 3.33398 16.0007 3.33398C7.90047 3.33398 1.33398 9.90047 1.33398 18.0007C1.33398 26.1008 7.90047 32.6673 16.0007 32.6673Z" fill="url(#paint0_linear_2887_20529)"/>
<circle cx="16" cy="18" r="16" fill="url(#paint1_linear_2887_20529)"/>
<circle cx="15.9974" cy="18.0013" r="13.2571" fill="url(#paint2_linear_2887_20529)"/>
<circle cx="16.0011" cy="18.0011" r="12.6476" fill="url(#paint3_linear_2887_20529)"/>
<path fill-rule="evenodd" clip-rule="evenodd" d="M14.9617 10.8379H17.0182L19.4738 16.5059H22.6683V18.5059H20.3403L22.5059 23.5046H20.0599L17.965 18.5059H13.9988L11.9039 23.5046H9.49121L11.65 18.5059H9.33496V16.5059H12.5138L14.9617 10.8379ZM14.837 16.5059H17.1269L15.9819 13.7738L14.837 16.5059Z" fill="url(#paint4_linear_2887_20529)"/>
<defs>
<linearGradient id="paint0_linear_2887_20529" x1="16.0007" y1="3.33398" x2="16.0007" y2="32.6673" gradientUnits="userSpaceOnUse">
<stop stop-color="#FFA487"/>
<stop offset="0.489583" stop-color="#FF7E55"/>
<stop offset="0.708337" stop-color="#FF4E16"/>
<stop offset="0.843756" stop-color="#E0410F"/>
<stop offset="1" stop-color="#BB3409"/>
</linearGradient>
<linearGradient id="paint1_linear_2887_20529" x1="16" y1="2" x2="16" y2="34" gradientUnits="userSpaceOnUse">
<stop stop-color="#FFA487"/>
<stop offset="0.489583" stop-color="#FF7E55"/>
<stop offset="0.708337" stop-color="#DD4110"/>
<stop offset="1" stop-color="#BB3409"/>
<stop offset="1" stop-color="#E0410F"/>
</linearGradient>
<linearGradient id="paint2_linear_2887_20529" x1="16.1498" y1="31.2584" x2="15.9974" y2="4.287" gradientUnits="userSpaceOnUse">
<stop stop-color="#DD4E20"/>
</linearGradient>
<linearGradient id="paint3_linear_2887_20529" x1="16.1465" y1="30.6488" x2="16.0011" y2="4.91739" gradientUnits="userSpaceOnUse">
<stop stop-color="#C23407"/>
<stop offset="0.296871" stop-color="#DC5024"/>
<stop offset="0.619793" stop-color="#E86237"/>
<stop offset="1" stop-color="#FF9270"/>
</linearGradient>
<linearGradient id="paint4_linear_2887_20529" x1="17.6742" y1="26.076" x2="16.1504" y2="10.3807" gradientUnits="userSpaceOnUse">
<stop stop-color="#C1C1C1"/>
<stop offset="0.385877" stop-color="#E7E7E7"/>
<stop offset="1" stop-color="white"/>
</linearGradient>
</defs>
</svg>
