<svg width="156" height="73" viewBox="0 0 156 73" fill="none" xmlns="http://www.w3.org/2000/svg">
<path d="M12 6L17 0L22 6H12Z" fill="#2D3036"/>
<rect y="6" width="156" height="67" rx="8" fill="#2D3036"/>
<path d="M15.9844 20.8711V20.1797H18.293V19.2891H16.0078V17.707H14.8828V19.2891H12.5742V20.1797H14.8945V20.8711C14.8887 22.5996 13.8574 24.3926 12.2578 25.125L12.8789 25.9805C14.0801 25.4238 14.9941 24.2637 15.457 22.875C15.9023 24.1582 16.7637 25.2539 17.9062 25.793L18.5391 24.9492C16.9746 24.1992 15.9844 22.4883 15.9844 20.8711ZM19.4531 27.9961H20.5664V22.6641H22.2539V21.7266H20.5664V17.4961H19.4531V27.9961ZM31.2773 23.0859H25.0898V21.5625H30.9492V20.6836H25.0898V19.2656H31.1719V18.3633H23.9648V23.9766H31.2773V23.0859ZM22.7578 26.6719H32.3672V25.7578H22.7578V26.6719ZM41.625 20.5664H35.4961V17.8711H34.3945V21.457H41.625V20.5664ZM33.1172 23.6719H42.7266V22.7812H33.1172V23.6719ZM34.3125 27.75H41.6953V26.8359H35.4258V24.668H34.3125V27.75ZM55.4062 17.4961H54.3398V23.9883H55.4062V17.4961ZM46.3711 21.5156L46.4766 22.3711C47.0918 22.3711 47.8652 22.3652 48.6914 22.3301V23.9414H49.7695V22.2656C50.5195 22.207 51.2754 22.1133 51.9609 21.9727L51.8789 21.2109C50.1387 21.4863 47.7949 21.5156 46.3711 21.5156ZM46.8867 19.418C46.8809 20.3789 47.8066 20.9824 49.1836 20.9883C50.5547 20.9824 51.4863 20.3789 51.4805 19.418C51.4863 18.457 50.5547 17.8652 49.1836 17.8594C47.8066 17.8652 46.8809 18.457 46.8867 19.418ZM47.8945 19.418C47.8945 18.9316 48.3867 18.6445 49.1836 18.6562C49.9688 18.6445 50.4844 18.9316 50.4844 19.418C50.4844 19.9102 49.9688 20.1914 49.1836 20.1914C48.3867 20.1914 47.8945 19.9102 47.8945 19.418ZM48.1875 27.8672H55.4062V24.3516H54.3047V25.2422H49.2773V24.3516H48.1875V27.8672ZM49.2773 26.9883V26.1094H54.3047V26.9883H49.2773ZM50.6367 23.4375H52.4062V23.9648H53.4609V17.6719H52.4062V22.6641H50.6367V23.4375ZM66.3984 23.2148H56.7891V24.1055H61.125V25.9102H62.2266V24.1055H66.3984V23.2148ZM57.9844 27.7734H65.332V26.8711H59.0977V24.9609H57.9844V27.7734ZM58.0312 22.4062H65.2734V21.5273H59.1562V20.5547H64.9336V19.6992H59.1562V18.75H65.2031V17.8711H58.0312V22.4062ZM70.5938 18.2461C68.9414 18.2402 67.7285 19.2656 67.7344 20.7422C67.7285 22.2188 68.9414 23.2441 70.5938 23.25C72.252 23.2441 73.4473 22.2188 73.4531 20.7422C73.4473 19.2656 72.252 18.2402 70.5938 18.2461ZM67.2305 24.832L67.3711 25.7578C69.2461 25.7578 71.7949 25.7461 74.168 25.2891L74.0859 24.4805C71.7891 24.8145 69.1406 24.832 67.2305 24.832ZM68.8359 20.7422C68.8242 19.8223 69.5742 19.207 70.5938 19.207C71.6133 19.207 72.3633 19.8223 72.3633 20.7422C72.3633 21.6738 71.6133 22.2773 70.5938 22.2773C69.5742 22.2773 68.8242 21.6738 68.8359 20.7422ZM74.7422 28.0195H75.8555V17.4961H74.7422V28.0195ZM89.1445 17.8125H81.3516V18.6562H82.8867V20.4727H81.3984V21.3281H89.0977V20.4727H87.6211V18.6562H89.1445V17.8125ZM80.4727 22.9805H90.0469V22.1016H80.4727V22.9805ZM81.6211 24.6328H87.7383V25.418H81.6328V27.8906H89.1328V27.0469H82.7227V26.2031H88.8398V23.8008H81.6211V24.6328ZM83.9883 20.4727V18.6562H86.5078V20.4727H83.9883ZM99.7969 17.5078H98.7422V20.1797H97.4531V17.6953H96.4102V23.7305H97.4531V21.0938H98.7422V24.6328H99.7969V17.5078ZM91.2891 19.1953H94.207V20.4844H91.3125V23.5898H92.0039C93.5625 23.584 94.6465 23.543 95.9531 23.2734L95.8359 22.3945C94.6816 22.6289 93.6914 22.6934 92.3906 22.6992V21.3047H95.2734V18.293H91.2891V19.1953ZM92.1562 27.082L92.6016 27.9492C94.207 27.6914 95.5898 26.9121 96.2461 25.8105C96.8906 26.9121 98.2793 27.6914 99.8906 27.9492L100.336 27.082C98.3496 26.8008 96.7969 25.6758 96.7969 24.3867V24.1406H95.6836V24.3867C95.6777 25.6758 94.125 26.8008 92.1562 27.082ZM110.789 22.7227H106.547V21.6328H109.84V20.7305H108.363V18.7266H109.887V17.8242H102.094V18.7266H103.629V20.7305H102.141V21.6328H105.434V22.7227H101.215V23.6133H110.789V22.7227ZM102.363 27.8672H109.617V24.5273H102.363V27.8672ZM103.465 26.9648V25.3945H108.539V26.9648H103.465ZM104.73 20.7305V18.7266H107.25V20.7305H104.73ZM123.258 17.4961H122.156V18.9375H119.859V17.9766H118.758V19.3945H116.133V17.9766H115.02V22.5703H119.859V21.7031H122.156V22.957H123.258V17.4961ZM116.133 21.6797V20.25H118.758V21.6797H116.133ZM116.391 24.293H122.156V25.1719H116.414V27.8672H123.633V26.9766H117.527V26.0039H123.258V23.4258H116.391V24.293ZM119.859 20.8477V19.793H122.156V20.8477H119.859ZM133.641 17.4961H132.527V20.0508H130.559V20.9766H132.527V23.6133H133.641V17.4961ZM124.898 22.6758L125.473 23.5547C126.721 23.1152 127.641 22.1953 128.098 21.0352C128.555 22.0781 129.428 22.9219 130.605 23.332L131.18 22.4531C129.592 21.9023 128.643 20.5957 128.648 19.2891V19.043H130.898V18.1289H125.238V19.043H127.512V19.2891C127.518 20.7246 126.51 22.125 124.898 22.6758ZM126.715 27.8672H133.641V24.1055H126.715V27.8672ZM127.816 26.9648V24.9844H132.551V26.9648H127.816ZM137.145 26.1914H135.832L135.211 29.4258H136.207L137.145 26.1914ZM17.7188 35.0586H12.8438V40.0039H13.6641C15.8203 40.0039 17.0566 39.957 18.4922 39.7109L18.375 38.8203C17.0332 39.0547 15.8848 39.1133 13.957 39.1133V37.9531H17.5195V37.0742H13.957V35.9609H17.7188V35.0586ZM13.9102 44.8672H20.6367V40.7656H19.5234V41.9141H15.0117V40.7656H13.9102V44.8672ZM15.0117 43.9648V42.7812H19.5234V43.9648H15.0117ZM19.5234 40.3086H20.6367V37.8359H22.1602V36.8867H20.6367V34.4961H19.5234V40.3086ZM28.1133 35.1055V34.6719H26.9766V35.1055C26.9707 36.3828 25.3008 37.5664 23.2852 37.8125L23.7188 38.6914C25.4062 38.4453 26.8828 37.6309 27.5508 36.4824C28.2305 37.6191 29.707 38.4453 31.3828 38.6914L31.793 37.8125C29.7949 37.5664 28.1191 36.3594 28.1133 35.1055ZM22.7578 40.3438H32.332V39.4531H22.7578V40.3438ZM23.8945 43.1094C23.8945 44.3105 25.2539 44.9902 27.5391 44.9961C29.7949 44.9902 31.1543 44.3105 31.1602 43.1094C31.1543 41.8965 29.7949 41.2344 27.5391 41.2344C25.2539 41.2344 23.8945 41.8965 23.8945 43.1094ZM25.0195 43.1094C25.0137 42.4531 25.9336 42.0898 27.5391 42.0898C29.1211 42.0898 30.0469 42.4531 30.0469 43.1094C30.0469 43.7715 29.1211 44.1289 27.5391 44.1172C25.9336 44.1289 25.0137 43.7715 25.0195 43.1094ZM36.7383 35.1172H35.625L32.8945 45.2773H34.0078L36.7383 35.1172ZM45.4688 34.4961H44.3672V44.9961H45.4688V39.6758H47.1562V38.75H45.4688V34.4961ZM37.2305 37.0508H43.4531V36.1367H40.9336V34.6367H39.8203V36.1367H37.2305V37.0508ZM37.7695 40.2617C37.7695 41.7031 38.8711 42.7051 40.3828 42.7109C41.8887 42.7051 42.9902 41.7031 42.9961 40.2617C42.9902 38.832 41.8887 37.8242 40.3828 37.8242C38.8711 37.8242 37.7695 38.832 37.7695 40.2617ZM38.8359 40.2617C38.8301 39.3652 39.4863 38.7441 40.3828 38.7383C41.2734 38.7441 41.9238 39.3652 41.9297 40.2617C41.9238 41.1758 41.2734 41.7852 40.3828 41.7734C39.4863 41.7852 38.8301 41.1758 38.8359 40.2617ZM51.2578 37.8711V37.1797H53.5664V36.2891H51.2812V34.707H50.1562V36.2891H47.8477V37.1797H50.168V37.8711C50.1621 39.5996 49.1309 41.3926 47.5312 42.125L48.1523 42.9805C49.3535 42.4238 50.2676 41.2637 50.7305 39.875C51.1758 41.1582 52.0371 42.2539 53.1797 42.793L53.8125 41.9492C52.248 41.1992 51.2578 39.4883 51.2578 37.8711ZM54.7266 44.9961H55.8398V39.6641H57.5273V38.7266H55.8398V34.4961H54.7266V44.9961ZM59.918 43.1914H58.6055L57.9844 46.4258H58.9805L59.918 43.1914ZM68.5312 35.3867H64.4766V40.1445H65.168C66.7324 40.1387 67.7988 40.0859 69.082 39.8516L68.9766 38.9375C67.8633 39.166 66.8906 39.2246 65.5781 39.2305V36.2891H68.5312V35.3867ZM65.332 44.082L65.8008 44.9492C67.4004 44.6738 68.7832 43.8711 69.4336 42.7578C70.0723 43.8711 71.4492 44.6738 73.0547 44.9492L73.5234 44.082C71.543 43.7949 69.9844 42.623 69.9844 41.3164V40.9297H68.8711V41.3164C68.8652 42.623 67.3066 43.7949 65.332 44.082ZM69.5977 40.5078H70.6406V38.082H71.9297V41.4219H72.9844V34.4961H71.9297V37.168H70.6406V34.6836H69.5977V40.5078ZM82.793 34.9414H75.6094V35.832H81.6914C81.6914 36.4883 81.668 37.291 81.4512 38.3516H74.4023V39.2422H84.0117V38.3516H82.5703C82.7988 37.209 82.7988 36.3242 82.793 35.6328V34.9414ZM75.5273 41.0703H81.7031V42.0781H75.5391V44.8906H83.0742V44H76.6523V42.9336H82.8047V40.1797H75.5273V41.0703ZM93.082 35.4219V34.8477H91.9219V35.4219C91.916 36.834 90.2168 38.123 88.1602 38.3984L88.6055 39.3125C90.3105 39.0371 91.8164 38.1465 92.502 36.9102C93.1875 38.1465 94.6934 39.0371 96.4102 39.3125L96.8438 38.3984C94.7812 38.123 93.0762 36.8164 93.082 35.4219ZM87.7031 41.2578H91.9219V44.9961H93.0117V41.2578H97.2773V40.3438H87.7031V41.2578ZM107.672 39.3125H98.0625V40.168H107.672V39.3125ZM99.1992 41.7031H105.387V42.4766H99.2109V44.8672H106.816V44.082H100.324V43.2148H106.488V40.9062H99.1992V41.7031ZM99.2695 35.5508H105.352V36.3008H99.293V38.6211H106.641V37.8359H100.395V37.0391H106.465V34.7656H99.2695V35.5508ZM119.625 34.4961H118.512V40.6133H119.625V38.0703H121.148V37.1328H119.625V34.4961ZM111.387 36.418H117.645V35.5273H115.078V34.4023H113.965V35.5273H111.387V36.418ZM111.961 38.6914C111.955 39.8105 112.986 40.543 114.516 40.5312C116.027 40.543 117.059 39.8105 117.059 38.6914C117.059 37.5723 116.027 36.8457 114.516 36.8516C112.986 36.8457 111.955 37.5723 111.961 38.6914ZM112.91 44.8672H119.625V41.0469H118.512V42.0664H114.012V41.0469H112.91V44.8672ZM113.039 38.6914C113.027 38.0762 113.625 37.6777 114.516 37.6836C115.406 37.6777 116.004 38.0762 116.016 38.6914C116.004 39.3184 115.406 39.7051 114.516 39.7109C113.625 39.7051 113.027 39.3184 113.039 38.6914ZM114.012 43.9766V42.9336H118.512V43.9766H114.012ZM130.5 34.4961H129.398V37.7656H127.348V38.6797H129.398V39.957H127.348V40.8594H129.398V45.0195H130.5V34.4961ZM121.746 42.125L122.355 42.9805C123.562 42.4238 124.482 41.252 124.939 39.8633C125.408 41.1816 126.334 42.2891 127.523 42.8164L128.156 41.9609C126.545 41.252 125.473 39.5293 125.473 37.8711V37.1797H127.77V36.2891H125.496V34.707H124.383V36.2891H122.039V37.1797H124.371V37.8711C124.377 39.5996 123.334 41.3926 121.746 42.125ZM16.4531 57.0742H15.3398V58.9375C14.291 58.9727 13.2891 58.9785 12.4453 58.9844L12.5859 59.8984C14.4609 59.8984 17.0098 59.8809 19.3828 59.4414L19.3008 58.6211C18.3867 58.7559 17.4141 58.8379 16.4531 58.8906V57.0742ZM12.7266 56.5703L13.2539 57.4141C14.5137 57.0566 15.4395 56.2539 15.8965 55.2051C16.3711 56.2012 17.3086 56.9629 18.5625 57.3203L19.0781 56.4531C17.5078 56.0312 16.5117 54.9707 16.4531 53.7344H18.8086V52.832H16.4531V51.5781H15.3398V52.832H13.0078V53.7344H15.3281C15.2695 55.0234 14.291 56.1191 12.7266 56.5703ZM19.957 62.0195H21.0703V51.4961H19.957V62.0195ZM31.1484 52.1172H23.9648V53.0195H30.0469C30.0469 53.9043 30.041 54.9004 29.7656 56.2656H22.7578V57.1797H32.3672V56.2656H30.8848C31.1543 54.877 31.1543 53.8398 31.1484 52.9492V52.1172ZM24.0117 61.7734H31.4648V60.8594H25.1133V58.2695H24.0117V61.7734ZM39.6445 52.5156H38.3789L36.2695 53.8984V55.1289L38.2969 53.8047H38.3438V61H39.6445V52.5156ZM45.293 54.168V52.375H44.168V54.168C44.168 56.1719 43.0078 58.1816 41.3555 58.9141L42.0352 59.8516C43.2949 59.2363 44.2617 57.9707 44.748 56.4297C45.2402 57.8652 46.1953 59.043 47.4023 59.6172L48.0703 58.7383C46.4414 58.0176 45.2812 56.084 45.293 54.168ZM49.0195 62.0195H50.1328V51.4961H49.0195V62.0195ZM60.0586 51.4961H58.9336V59.125H60.0586V55.5273H61.582V54.6016H60.0586V51.4961ZM51.7969 57.0859L52.2656 57.9766C55.3359 57.0449 57.2109 55.0469 57.2109 52.293H52.2422V53.2188H55.998C55.7812 54.9473 54.2578 56.3477 51.7969 57.0859ZM53.3906 61.7734H60.4922V60.8711H54.5156V58.3398H53.3906V61.7734ZM69 53.1719V53.0547H71.3086V52.1523H65.5195V53.0547H67.875V53.1719C67.8691 54.5488 66.8496 55.8379 65.2148 56.3359L65.7773 57.2148C67.0371 56.7988 67.9746 55.9316 68.4434 54.8242C68.9238 55.8555 69.8496 56.6523 71.0742 57.0273L71.6367 56.1602C70.0195 55.6855 69 54.4785 69 53.1719ZM66.9492 61.8672H73.8164V57.6719H72.7148V58.8438H68.0391V57.6719H66.9492V61.8672ZM68.0391 60.9648V59.7227H72.7148V60.9648H68.0391ZM72.7031 57.1797H73.8164V51.4961H72.7031V57.1797ZM84.5039 51.4961H83.4492V61.9961H84.5039V51.4961ZM75.4219 58.9609L76.0781 59.7578C78.0586 58.5801 79.1777 57.0449 79.6875 55.2812H81.3047V56.9922H79.5117V57.9062H81.3047V61.4805H82.3594V51.7656H81.3047V54.3672H79.8926C79.9746 53.8574 80.0156 53.3359 80.0156 52.7969H75.9375V53.7109H78.9141C78.7207 55.873 77.6543 57.6367 75.4219 58.9609ZM95.4492 56.3125H85.8398V57.168H95.4492V56.3125ZM86.9766 58.7031H93.1641V59.4766H86.9883V61.8672H94.5938V61.082H88.1016V60.2148H94.2656V57.9062H86.9766V58.7031ZM87.0469 52.5508H93.1289V53.3008H87.0703V55.6211H94.418V54.8359H88.1719V54.0391H94.2422V51.7656H87.0469V52.5508ZM107.402 51.5078H106.289V59.2188H107.402V55.5391H108.926V54.6016H107.402V51.5078ZM99.5625 57.4844H104.508V52.2578H103.406V53.9336H100.652V52.2578H99.5625V57.4844ZM100.652 56.5938V54.8125H103.406V56.5938H100.652ZM100.746 61.7734H107.848V60.8711H101.859V58.457H100.746V61.7734ZM112.43 52.1055C110.848 52.0996 109.67 53.1426 109.676 54.625C109.67 56.0898 110.848 57.1387 112.43 57.1328C113.297 57.1387 114.041 56.8164 114.533 56.2773H117.164V57.6953H118.277V51.4961H117.164V52.9727H114.539C114.047 52.4277 113.303 52.0996 112.43 52.1055ZM110.742 54.625C110.736 53.6816 111.445 53.0547 112.43 53.0664C113.385 53.0547 114.094 53.6816 114.094 54.625C114.094 55.5449 113.385 56.1953 112.43 56.1836C111.445 56.1953 110.736 55.5449 110.742 54.625ZM111.211 59.957C111.205 61.2344 112.564 61.9785 114.762 61.9727C116.947 61.9785 118.307 61.2344 118.312 59.957C118.307 58.6738 116.947 57.9238 114.762 57.9297C112.564 57.9238 111.205 58.6738 111.211 59.957ZM112.301 59.957C112.295 59.207 113.221 58.791 114.762 58.7852C116.303 58.791 117.223 59.207 117.223 59.957C117.223 60.6777 116.303 61.0996 114.762 61.0938C113.221 61.0996 112.295 60.6777 112.301 59.957ZM115.049 53.8633H117.164V55.3633H115.049C115.119 55.1348 115.16 54.8828 115.16 54.625C115.16 54.3555 115.119 54.0977 115.049 53.8633ZM125.086 53.2305H123.035V51.8008H121.934V53.2305H119.871V54.1328H125.086V53.2305ZM120.211 57.1797C120.205 58.6152 121.166 59.623 122.484 59.6172C123.814 59.623 124.764 58.6152 124.77 57.1797C124.764 55.7676 123.814 54.7656 122.484 54.7656C121.166 54.7656 120.205 55.7676 120.211 57.1797ZM121.195 57.1797C121.189 56.3066 121.729 55.6973 122.484 55.6914C123.24 55.6973 123.785 56.3066 123.785 57.1797C123.785 58.0703 123.24 58.668 122.484 58.668C121.729 58.668 121.189 58.0703 121.195 57.1797ZM125.566 61.5039H126.621V56.7812H127.828V61.9961H128.883V51.4961H127.828V55.8672H126.621V51.7305H125.566V61.5039ZM139.875 59.7578H137.578V56.9922C138.422 56.5176 138.926 55.7734 138.926 54.8477C138.926 53.1953 137.303 52.1113 135.047 52.1055C132.797 52.1113 131.174 53.1953 131.18 54.8477C131.174 55.791 131.701 56.541 132.562 57.0156V59.7578H130.266V60.6836H139.875V59.7578ZM132.258 54.8477C132.258 53.7168 133.4 52.9961 135.047 52.9961C136.682 52.9961 137.842 53.7168 137.848 54.8477C137.842 55.9727 136.682 56.7051 135.047 56.7109C133.4 56.7051 132.258 55.9727 132.258 54.8477ZM133.664 59.7578V57.4258C134.086 57.5254 134.555 57.5781 135.047 57.5781C135.551 57.5781 136.025 57.5254 136.453 57.4258V59.7578H133.664ZM141.832 61.082C142.283 61.0762 142.658 60.707 142.664 60.25C142.658 59.793 142.283 59.418 141.832 59.418C141.375 59.418 140.994 59.793 141 60.25C140.994 60.707 141.375 61.0762 141.832 61.082Z" fill="white"/>
</svg>
